<svg width="1448" height="1439" viewBox="0 0 1448 1439" fill="none" xmlns="http://www.w3.org/2000/svg">
<g opacity="0.5">
<path opacity="0.5" d="M1000.21 126.592C1001.58 126.592 1002.69 125.48 1002.69 124.11C1002.69 122.739 1001.58 121.627 1000.21 121.627C998.842 121.627 997.73 122.739 997.73 124.11C997.73 125.48 998.842 126.592 1000.21 126.592Z" fill="white"/>
<path opacity="0.5" d="M1129.45 48.8716C1130.82 48.8716 1131.93 47.7603 1131.93 46.3894C1131.93 45.0185 1130.82 43.9072 1129.45 43.9072C1128.08 43.9072 1126.97 45.0185 1126.97 46.3894C1126.97 47.7603 1128.08 48.8716 1129.45 48.8716Z" fill="white"/>
<path opacity="0.5" d="M1296.7 80.1472C1298.07 80.1472 1299.18 79.0359 1299.18 77.665C1299.18 76.2941 1298.07 75.1828 1296.7 75.1828C1295.33 75.1828 1294.21 76.2941 1294.21 77.665C1294.21 79.0359 1295.33 80.1472 1296.7 80.1472Z" fill="white"/>
<path opacity="0.5" d="M1324.61 775.933C1325.98 775.933 1327.09 774.822 1327.09 773.451C1327.09 772.08 1325.98 770.969 1324.61 770.969C1323.24 770.969 1322.12 772.08 1322.12 773.451C1322.12 774.822 1323.24 775.933 1324.61 775.933Z" fill="white"/>
<path opacity="0.5" d="M237.187 57.6972C238.558 57.6972 239.669 56.5858 239.669 55.215C239.669 53.8441 238.558 52.7328 237.187 52.7328C235.816 52.7328 234.705 53.8441 234.705 55.215C234.705 56.5858 235.816 57.6972 237.187 57.6972Z" fill="white"/>
<path opacity="0.5" d="M239.67 212.034C241.041 212.034 242.152 210.923 242.152 209.552C242.152 208.181 241.041 207.07 239.67 207.07C238.299 207.07 237.188 208.181 237.188 209.552C237.188 210.923 238.299 212.034 239.67 212.034Z" fill="white"/>
<path opacity="0.5" d="M42.032 14.1761C43.4029 14.1761 44.5142 13.0648 44.5142 11.6939C44.5142 10.323 43.4029 9.2117 42.032 9.2117C40.6611 9.2117 39.5498 10.323 39.5498 11.6939C39.5498 13.0648 40.6611 14.1761 42.032 14.1761Z" fill="white"/>
<path opacity="0.5" d="M464.17 14.1761C465.541 14.1761 466.652 13.0648 466.652 11.6939C466.652 10.323 465.541 9.2117 464.17 9.2117C462.799 9.2117 461.688 10.323 461.688 11.6939C461.688 13.0648 462.799 14.1761 464.17 14.1761Z" fill="white"/>
<path opacity="0.5" d="M657.229 375.749C658.6 375.749 659.711 374.637 659.711 373.266C659.711 371.895 658.6 370.784 657.229 370.784C655.858 370.784 654.747 371.895 654.747 373.266C654.747 374.637 655.858 375.749 657.229 375.749Z" fill="white"/>
<path opacity="0.5" d="M279.77 557.059C281.141 557.059 282.252 555.948 282.252 554.577C282.252 553.206 281.141 552.094 279.77 552.094C278.399 552.094 277.288 553.206 277.288 554.577C277.288 555.948 278.399 557.059 279.77 557.059Z" fill="white"/>
<path opacity="0.5" d="M71.2664 559.541C72.6372 559.541 73.7486 558.43 73.7486 557.059C73.7486 555.688 72.6372 554.577 71.2664 554.577C69.8955 554.577 68.7842 555.688 68.7842 557.059C68.7842 558.43 69.8955 559.541 71.2664 559.541Z" fill="white"/>
<path opacity="0.5" d="M1444.03 635.827C1446.22 635.827 1448 634.049 1448 631.856C1448 629.662 1446.22 627.884 1444.03 627.884C1441.83 627.884 1440.06 629.662 1440.06 631.856C1440.06 634.049 1441.83 635.827 1444.03 635.827Z" fill="white"/>
<path opacity="0.5" d="M3.9715 764.129C6.16491 764.129 7.94301 762.351 7.94301 760.157C7.94301 757.964 6.16491 756.186 3.9715 756.186C1.7781 756.186 0 757.964 0 760.157C0 762.351 1.7781 764.129 3.9715 764.129Z" fill="white"/>
<path opacity="0.5" d="M1294.21 405.866C1296.41 405.866 1298.19 404.088 1298.19 401.894C1298.19 399.701 1296.41 397.923 1294.21 397.923C1292.02 397.923 1290.24 399.701 1290.24 401.894C1290.24 404.088 1292.02 405.866 1294.21 405.866Z" fill="white"/>
<path opacity="0.5" d="M997.786 305.31C999.979 305.31 1001.76 303.531 1001.76 301.338C1001.76 299.145 999.979 297.367 997.786 297.367C995.593 297.367 993.814 299.145 993.814 301.338C993.814 303.531 995.593 305.31 997.786 305.31Z" fill="white"/>
<path opacity="0.5" d="M1380.82 271.828C1383.01 271.828 1384.79 270.049 1384.79 267.856C1384.79 265.663 1383.01 263.884 1380.82 263.884C1378.62 263.884 1376.84 265.663 1376.84 267.856C1376.84 270.049 1378.62 271.828 1380.82 271.828Z" fill="white"/>
<path opacity="0.5" d="M387.332 350.982C388.703 350.982 389.814 349.871 389.814 348.5C389.814 347.129 388.703 346.017 387.332 346.017C385.961 346.017 384.85 347.129 384.85 348.5C384.85 349.871 385.961 350.982 387.332 350.982Z" fill="white"/>
<path opacity="0.5" d="M536.319 240.221C537.69 240.221 538.801 239.11 538.801 237.739C538.801 236.368 537.69 235.257 536.319 235.257C534.948 235.257 533.837 236.368 533.837 237.739C533.837 239.11 534.948 240.221 536.319 240.221Z" fill="white"/>
<path opacity="0.5" d="M148.877 378.176C150.248 378.176 151.359 377.064 151.359 375.693C151.359 374.323 150.248 373.211 148.877 373.211C147.506 373.211 146.395 374.323 146.395 375.693C146.395 377.064 147.506 378.176 148.877 378.176Z" fill="white"/>
<path opacity="0.5" d="M673.611 1328.91C674.982 1328.91 676.093 1327.8 676.093 1326.43C676.093 1325.06 674.982 1323.95 673.611 1323.95C672.24 1323.95 671.129 1325.06 671.129 1326.43C671.129 1327.8 672.24 1328.91 673.611 1328.91Z" fill="white"/>
<path opacity="0.5" d="M1284.01 1434.82C1286.2 1434.82 1287.98 1433.04 1287.98 1430.85C1287.98 1428.65 1286.2 1426.87 1284.01 1426.87C1281.82 1426.87 1280.04 1428.65 1280.04 1430.85C1280.04 1433.04 1281.82 1434.82 1284.01 1434.82Z" fill="white"/>
<path opacity="0.5" d="M324.34 1375.8C325.71 1375.8 326.822 1374.68 326.822 1373.31C326.822 1371.94 325.71 1370.83 324.34 1370.83C322.969 1370.83 321.857 1371.94 321.857 1373.31C321.857 1374.68 322.969 1375.8 324.34 1375.8Z" fill="white"/>
<path opacity="0.5" d="M130.728 1231.55C132.099 1231.55 133.21 1230.44 133.21 1229.07C133.21 1227.7 132.099 1226.59 130.728 1226.59C129.357 1226.59 128.246 1227.7 128.246 1229.07C128.246 1230.44 129.357 1231.55 130.728 1231.55Z" fill="white"/>
<path opacity="0.5" d="M897.891 14.1761C899.262 14.1761 900.374 13.0648 900.374 11.6939C900.374 10.323 899.262 9.2117 897.891 9.2117C896.52 9.2117 895.409 10.323 895.409 11.6939C895.409 13.0648 896.52 14.1761 897.891 14.1761Z" fill="white"/>
<path opacity="0.5" d="M34.4754 270.779C35.8462 270.779 36.9575 269.668 36.9575 268.297C36.9575 266.926 35.8462 265.815 34.4754 265.815C33.1045 265.815 31.9932 266.926 31.9932 268.297C31.9932 269.668 33.1045 270.779 34.4754 270.779Z" fill="white"/>
<path opacity="0.5" d="M650.775 61.6135C652.969 61.6135 654.747 59.8354 654.747 57.642C654.747 55.4486 652.969 53.6705 650.775 53.6705C648.582 53.6705 646.804 55.4486 646.804 57.642C646.804 59.8354 648.582 61.6135 650.775 61.6135Z" fill="white"/>
<path opacity="0.5" d="M1376.84 7.94301C1379.04 7.94301 1380.82 6.16491 1380.82 3.97151C1380.82 1.77811 1379.04 0 1376.84 0C1374.65 0 1372.87 1.77811 1372.87 3.97151C1372.87 6.16491 1374.65 7.94301 1376.84 7.94301Z" fill="white"/>
<path opacity="0.5" d="M805.94 188.316C808.134 188.316 809.912 186.537 809.912 184.344C809.912 182.151 808.134 180.373 805.94 180.373C803.747 180.373 801.969 182.151 801.969 184.344C801.969 186.537 803.747 188.316 805.94 188.316Z" fill="white"/>
<path opacity="0.5" d="M513.042 1248.87C514.413 1248.87 515.524 1247.76 515.524 1246.39C515.524 1245.02 514.413 1243.91 513.042 1243.91C511.671 1243.91 510.56 1245.02 510.56 1246.39C510.56 1247.76 511.671 1248.87 513.042 1248.87Z" fill="white"/>
<path opacity="0.5" d="M31.9929 1033.97C33.3638 1033.97 34.4751 1032.86 34.4751 1031.49C34.4751 1030.12 33.3638 1029.01 31.9929 1029.01C30.6221 1029.01 29.5107 1030.12 29.5107 1031.49C29.5107 1032.86 30.6221 1033.97 31.9929 1033.97Z" fill="white"/>
<path opacity="0.5" d="M326.822 1135.46C328.193 1135.46 329.304 1134.35 329.304 1132.98C329.304 1131.61 328.193 1130.5 326.822 1130.5C325.451 1130.5 324.34 1131.61 324.34 1132.98C324.34 1134.35 325.451 1135.46 326.822 1135.46Z" fill="white"/>
<path opacity="0.5" d="M1222.73 1202.92C1224.1 1202.92 1225.21 1201.81 1225.21 1200.44C1225.21 1199.07 1224.1 1197.96 1222.73 1197.96C1221.36 1197.96 1220.25 1199.07 1220.25 1200.44C1220.25 1201.81 1221.36 1202.92 1222.73 1202.92Z" fill="white"/>
<path opacity="0.5" d="M1028.01 1007.6C1029.38 1007.6 1030.5 1006.49 1030.5 1005.12C1030.5 1003.75 1029.38 1002.64 1028.01 1002.64C1026.64 1002.64 1025.53 1003.75 1025.53 1005.12C1025.53 1006.49 1026.64 1007.6 1028.01 1007.6Z" fill="white"/>
<path opacity="0.5" d="M1417.88 1246.39C1419.25 1246.39 1420.36 1245.28 1420.36 1243.91C1420.36 1242.54 1419.25 1241.43 1417.88 1241.43C1416.51 1241.43 1415.4 1242.54 1415.4 1243.91C1415.4 1245.28 1416.51 1246.39 1417.88 1246.39Z" fill="white"/>
<path opacity="0.5" d="M1259.85 1009.09C1262.04 1009.09 1263.82 1007.32 1263.82 1005.12C1263.82 1002.93 1262.04 1001.15 1259.85 1001.15C1257.66 1001.15 1255.88 1002.93 1255.88 1005.12C1255.88 1007.32 1257.66 1009.09 1259.85 1009.09Z" fill="white"/>
<path opacity="0.5" d="M1425.44 989.788C1426.81 989.788 1427.92 988.676 1427.92 987.305C1427.92 985.934 1426.81 984.823 1425.44 984.823C1424.07 984.823 1422.96 985.934 1422.96 987.305C1422.96 988.676 1424.07 989.788 1425.44 989.788Z" fill="white"/>
<path opacity="0.5" d="M1078.82 1309.82C1081.01 1309.82 1082.79 1308.05 1082.79 1305.85C1082.79 1303.66 1081.01 1301.88 1078.82 1301.88C1076.62 1301.88 1074.84 1303.66 1074.84 1305.85C1074.84 1308.05 1076.62 1309.82 1078.82 1309.82Z" fill="white"/>
<path opacity="0.5" d="M700.308 1099.61C702.502 1099.61 704.28 1097.83 704.28 1095.64C704.28 1093.45 702.502 1091.67 700.308 1091.67C698.115 1091.67 696.337 1093.45 696.337 1095.64C696.337 1097.83 698.115 1099.61 700.308 1099.61Z" fill="white"/>
<path opacity="0.5" d="M830.872 1426.87C833.065 1426.87 834.843 1425.1 834.843 1422.9C834.843 1420.71 833.065 1418.93 830.872 1418.93C828.678 1418.93 826.9 1420.71 826.9 1422.9C826.9 1425.1 828.678 1426.87 830.872 1426.87Z" fill="white"/>
<path opacity="0.5" d="M31.993 1438.79C34.1864 1438.79 35.9645 1437.01 35.9645 1434.82C35.9645 1432.62 34.1864 1430.85 31.993 1430.85C29.7996 1430.85 28.0215 1432.62 28.0215 1434.82C28.0215 1437.01 29.7996 1438.79 31.993 1438.79Z" fill="white"/>
</g>
<path opacity="0.2" d="M1266.35 828.559C1223.36 693.493 939.878 663.136 633.18 760.755C326.482 858.375 112.705 1047 155.696 1182.07C198.686 1317.14 482.165 1347.49 788.863 1249.87C1095.56 1152.25 1309.34 963.626 1266.35 828.559Z" fill="url(#paint0_linear_2333_4484)"/>
<path opacity="0.2" d="M1171.17 858.852C1135.55 746.924 900.651 721.762 646.515 802.652C392.379 883.541 215.241 1039.85 250.867 1151.78C286.493 1263.71 521.391 1288.87 775.527 1207.98C1029.66 1127.09 1206.8 970.78 1171.17 858.852Z" fill="url(#paint1_linear_2333_4484)"/>
<path opacity="0.2" d="M1063.35 893.17C1036.08 807.471 856.22 788.208 661.632 850.143C467.044 912.079 331.411 1031.76 358.688 1117.46C385.966 1203.16 565.823 1222.42 760.411 1160.49C954.999 1098.55 1090.63 978.869 1063.35 893.17Z" fill="url(#paint2_linear_2333_4484)"/>
<path opacity="0.2" d="M958.355 926.591C939.211 866.446 812.957 852.934 676.358 896.413C539.759 939.891 444.543 1023.89 463.687 1084.04C482.831 1144.18 609.085 1157.7 745.683 1114.22C882.282 1070.74 977.498 986.736 958.355 926.591Z" fill="url(#paint3_linear_2333_4484)"/>
<path d="M690.126 939.975C599.133 969.089 534.687 1021.94 546.234 1058.01C557.781 1094.08 640.879 1099.76 731.922 1070.64C822.916 1041.53 887.362 988.679 875.815 952.608C864.268 916.536 781.12 910.861 690.126 939.975Z" fill="url(#paint4_radial_2333_4484)"/>
<path d="M1141.64 814.489C1127.82 801.659 1110.11 790.852 1089.04 782.167C1046.95 764.748 991.58 755.767 927.924 755.767C844.628 755.767 747.121 771.163 646.604 803.139C472.462 858.554 334.541 949.449 276.51 1036.99C257.166 1066.2 246.705 1094.97 246.705 1121.96C246.705 1132.13 248.185 1142.05 251.245 1151.62C256.624 1168.45 266.493 1183.3 280.26 1196.13C294.077 1208.96 311.792 1219.77 332.863 1228.45C374.955 1245.87 430.321 1254.85 493.977 1254.85C577.273 1254.85 674.78 1239.45 775.298 1207.48C949.439 1152.06 1087.36 1061.17 1145.39 973.629C1164.73 944.416 1175.2 915.648 1175.2 888.655C1175.2 878.49 1173.72 868.572 1170.66 858.999C1165.33 842.172 1155.46 827.319 1141.64 814.489ZM1044.33 981.524C1029.48 1003.98 1007.82 1026.68 980.576 1048.54C926.148 1092.26 849.464 1132.62 760.494 1160.95C683.465 1185.47 608.755 1197.26 544.853 1197.26C508.238 1197.26 475.226 1193.42 447.296 1185.82C419.415 1178.22 396.618 1166.92 380.63 1152.06C369.971 1142.14 362.322 1130.65 358.177 1117.62C355.809 1110.17 354.674 1102.52 354.674 1094.62C354.674 1073.75 362.766 1051.55 377.62 1029.09C392.473 1006.64 414.135 983.942 441.374 962.082C495.803 918.362 572.486 877.997 661.457 849.672C738.486 825.147 813.195 813.354 877.098 813.354C913.713 813.354 946.725 817.203 974.655 824.802C1002.54 832.401 1025.33 843.701 1041.32 858.554C1051.98 868.473 1059.63 879.971 1063.77 892.998C1066.14 900.4 1067.28 908.098 1067.28 915.993C1067.33 936.866 1059.23 959.072 1044.33 981.524Z" fill="url(#paint5_radial_2333_4484)"/>
<path d="M1040.63 859.295C1030.07 849.475 1016.5 841.234 1000.41 834.572C968.191 821.249 925.803 814.39 877.098 814.39C813.344 814.39 738.683 826.184 661.753 850.659C528.47 893.097 422.87 962.674 378.459 1029.69C363.655 1052.04 355.661 1074.05 355.661 1094.67C355.661 1102.47 356.796 1110.02 359.115 1117.37C363.211 1130.25 370.761 1141.6 381.321 1151.42C391.881 1161.24 405.451 1169.48 421.538 1176.14C453.761 1189.47 496.149 1196.33 544.853 1196.33C608.608 1196.33 683.268 1184.53 760.198 1160.06C893.481 1117.62 999.081 1048.04 1043.49 981.031C1058.3 958.677 1066.29 936.669 1066.29 916.042C1066.29 908.246 1065.16 900.696 1062.84 893.343C1058.74 880.464 1051.19 869.114 1040.63 859.295ZM945.146 988.679C934.685 1004.47 919.486 1020.41 900.34 1035.76C862.097 1066.45 808.31 1094.82 745.838 1114.71C691.755 1131.93 639.301 1140.22 594.396 1140.22C568.687 1140.22 545.494 1137.51 525.904 1132.18C506.314 1126.85 490.326 1118.9 479.075 1108.44C471.574 1101.48 466.196 1093.39 463.284 1084.21C461.607 1078.98 460.817 1073.55 460.817 1068.03C460.817 1053.32 466.492 1037.73 476.953 1021.94C487.414 1006.15 502.613 990.209 521.759 974.863C560.002 944.169 613.789 915.796 676.261 895.909C730.344 878.688 782.798 870.397 827.703 870.397C853.412 870.397 876.605 873.112 896.195 878.441C915.786 883.77 931.773 891.715 943.024 902.176C950.525 909.134 955.904 917.227 958.815 926.405C960.493 931.636 961.282 937.064 961.282 942.59C961.282 957.295 955.558 972.938 945.146 988.679Z" fill="url(#paint6_radial_2333_4484)"/>
<path d="M942.284 902.916C934.882 896.057 925.358 890.235 914.107 885.596C891.507 876.27 861.801 871.434 827.604 871.434C782.847 871.434 730.491 879.724 676.458 896.896C629.678 911.799 587.783 931.438 553.636 953.249C519.538 975.06 493.237 999.042 477.643 1022.53C467.281 1038.17 461.655 1053.62 461.655 1068.08C461.655 1073.5 462.445 1078.83 464.073 1083.97C466.935 1092.95 472.215 1100.89 479.617 1107.8C487.019 1114.66 496.543 1120.48 507.794 1125.12C530.394 1134.45 560.1 1139.28 594.297 1139.28C639.053 1139.28 691.409 1130.99 745.443 1113.82C792.223 1098.92 834.117 1079.28 868.265 1057.47C902.363 1035.66 928.664 1011.67 944.257 988.186C954.62 972.543 960.245 957.098 960.245 942.64C960.245 937.212 959.456 931.882 957.827 926.75C954.965 917.72 949.685 909.775 942.284 902.916Z" fill="url(#paint7_radial_2333_4484)"/>
<path d="M1265.84 828.7C1259.38 808.37 1247.44 790.457 1230.76 774.963C1214.08 759.468 1192.66 746.441 1167.25 735.93C1116.43 714.909 1049.61 704.053 972.78 704.053C872.213 704.053 754.572 722.656 633.28 761.245C423.116 828.108 256.624 937.804 186.602 1043.5C163.261 1078.74 150.629 1113.52 150.629 1146.09C150.629 1158.38 152.405 1170.32 156.106 1181.92C162.571 1202.25 174.512 1220.16 191.191 1235.66C207.87 1251.15 229.286 1264.18 254.699 1274.69C305.525 1295.71 372.34 1306.57 449.171 1306.57C549.738 1306.57 667.378 1287.96 788.67 1249.37C998.834 1182.51 1165.33 1072.81 1235.35 967.115C1258.69 931.882 1271.32 897.094 1271.32 864.525C1271.32 852.238 1269.55 840.247 1265.84 828.7ZM1146.28 974.172C1126.89 1003.48 1098.56 1033.09 1063.03 1061.61C991.975 1118.71 891.852 1171.41 775.643 1208.42C675.027 1240.44 577.47 1255.84 494.026 1255.84C446.21 1255.84 403.082 1250.8 366.665 1240.89C330.248 1230.97 300.542 1216.26 279.668 1196.87C265.753 1183.94 255.785 1168.94 250.357 1151.92C247.297 1142.24 245.768 1132.23 245.768 1121.96C245.768 1094.72 256.328 1065.76 275.721 1036.45C295.113 1007.13 323.438 977.527 358.967 949.005C430.025 891.912 530.148 839.211 646.357 802.202C746.973 770.176 844.53 754.78 927.974 754.78C975.79 754.78 1018.92 759.813 1055.34 769.732C1091.75 779.65 1121.46 794.356 1142.33 813.748C1156.25 826.677 1166.22 841.678 1171.64 858.703C1174.7 868.374 1176.23 878.391 1176.23 888.655C1176.23 915.894 1165.67 944.86 1146.28 974.172Z" fill="url(#paint8_radial_2333_4484)"/>
<path d="M1266.78 828.404C1260.27 807.926 1248.23 789.816 1231.45 774.222C1206.28 750.833 1170.46 733.068 1126.49 721.077C1082.52 709.135 1030.46 703.016 972.829 703.016C872.163 703.016 754.375 721.62 632.984 760.258C492.793 804.866 371.994 868.522 286.231 937.409C243.35 971.852 209.202 1007.58 185.813 1042.96C162.373 1078.29 149.691 1113.28 149.691 1146.09C149.691 1158.48 151.517 1170.57 155.218 1182.21C161.732 1202.69 173.772 1220.8 190.55 1236.4C215.716 1259.79 251.541 1277.55 295.508 1289.54C339.475 1301.48 391.535 1307.6 449.171 1307.6C549.837 1307.6 667.625 1289 789.016 1250.36C929.207 1205.75 1050.01 1142.1 1135.77 1073.21C1178.65 1038.77 1212.8 1003.04 1236.19 967.658C1259.63 932.326 1272.31 897.34 1272.31 864.525C1272.31 852.139 1270.48 840.05 1266.78 828.404ZM1235.35 967.115C1165.33 1072.81 998.834 1182.51 788.67 1249.37C667.378 1287.96 549.689 1306.57 449.171 1306.57C372.389 1306.57 305.525 1295.71 254.699 1274.69C229.286 1264.18 207.87 1251.15 191.191 1235.66C174.512 1220.16 162.571 1202.2 156.106 1181.92C152.405 1170.32 150.629 1158.38 150.629 1146.09C150.629 1113.52 163.261 1078.74 186.602 1043.5C256.624 937.804 423.117 828.108 633.28 761.245C754.572 722.656 872.262 704.053 972.78 704.053C1049.56 704.053 1116.43 714.909 1167.25 735.93C1192.66 746.441 1214.08 759.468 1230.76 774.963C1247.44 790.457 1259.38 808.419 1265.84 828.7C1269.55 840.296 1271.32 852.238 1271.32 864.525C1271.32 897.094 1258.69 931.882 1235.35 967.115Z" fill="url(#paint9_radial_2333_4484)"/>
<path d="M1142.33 813.748C1121.46 794.356 1091.75 779.601 1055.34 769.732C1018.92 759.813 975.74 754.78 927.974 754.78C844.53 754.78 746.973 770.176 646.357 802.202C530.197 839.162 430.074 891.912 358.967 949.005C323.438 977.527 295.163 1007.18 275.72 1036.45C256.328 1065.76 245.768 1094.72 245.768 1121.96C245.768 1132.23 247.248 1142.24 250.357 1151.92C255.785 1168.89 265.753 1183.94 279.668 1196.87C300.541 1216.26 330.248 1231.02 366.665 1240.89C403.082 1250.8 446.26 1255.84 494.026 1255.84C577.47 1255.84 675.027 1240.44 775.643 1208.42C891.803 1171.46 991.926 1118.71 1063.03 1061.61C1098.56 1033.09 1126.84 1003.43 1146.28 974.172C1165.67 944.86 1176.23 915.894 1176.23 888.655C1176.23 878.391 1174.75 868.374 1171.64 858.703C1166.22 841.678 1156.25 826.677 1142.33 813.748ZM1145.44 973.629C1087.41 1061.22 949.488 1152.06 775.347 1207.48C674.829 1239.45 577.322 1254.85 494.026 1254.85C430.37 1254.85 375.054 1245.87 332.912 1228.45C311.842 1219.77 294.126 1208.96 280.31 1196.13C266.493 1183.3 256.624 1168.45 251.294 1151.62C248.235 1142.05 246.754 1132.13 246.754 1121.96C246.754 1094.97 257.216 1066.15 276.559 1036.99C334.59 949.4 472.512 858.554 646.653 803.139C747.17 771.163 844.678 755.767 927.974 755.767C991.63 755.767 1046.95 764.748 1089.09 782.167C1110.16 790.852 1127.87 801.659 1141.69 814.489C1155.51 827.319 1165.38 842.172 1170.75 858.999C1173.81 868.572 1175.29 878.49 1175.29 888.655C1175.25 915.648 1164.78 944.416 1145.44 973.629Z" fill="url(#paint10_radial_2333_4484)"/>
<path d="M1041.32 858.554C1025.33 843.701 1002.58 832.401 974.655 824.802C946.774 817.203 913.713 813.354 877.098 813.354C813.195 813.354 738.486 825.147 661.457 849.672C572.486 877.997 495.852 918.362 441.374 962.082C414.136 983.942 392.473 1006.64 377.62 1029.09C362.767 1051.55 354.674 1073.75 354.674 1094.62C354.674 1102.47 355.809 1110.17 358.177 1117.62C362.322 1130.65 369.971 1142.14 380.63 1152.06C396.618 1166.92 419.366 1178.22 447.296 1185.82C475.176 1193.42 508.238 1197.26 544.853 1197.26C608.755 1197.26 683.465 1185.47 760.494 1160.95C849.464 1132.62 926.098 1092.26 980.576 1048.54C1007.82 1026.68 1029.48 1003.98 1044.33 981.524C1059.18 959.072 1067.28 936.866 1067.28 915.993C1067.28 908.147 1066.14 900.449 1063.77 892.998C1059.63 879.971 1051.98 868.473 1041.32 858.554ZM1043.54 980.981C999.18 1047.99 893.53 1117.57 760.247 1160.01C683.317 1184.48 608.657 1196.28 544.902 1196.28C496.198 1196.28 453.81 1189.42 421.587 1176.09C405.5 1169.43 391.93 1161.14 381.37 1151.37C370.81 1141.55 363.26 1130.2 359.164 1117.32C356.845 1110.02 355.71 1102.42 355.71 1094.62C355.71 1074 363.704 1051.94 378.508 1029.64C422.919 962.625 528.519 893.047 661.802 850.61C738.732 826.134 813.393 814.341 877.147 814.341C925.852 814.341 968.24 821.2 1000.46 834.523C1016.55 841.185 1030.12 849.475 1040.68 859.245C1051.24 869.065 1058.79 880.415 1062.89 893.294C1065.2 900.597 1066.34 908.196 1066.34 915.993C1066.34 936.62 1058.35 958.628 1043.54 980.981Z" fill="url(#paint11_radial_2333_4484)"/>
<path d="M942.975 902.176C931.724 891.715 915.736 883.77 896.146 878.441C876.555 873.112 853.314 870.397 827.654 870.397C782.798 870.397 730.294 878.688 676.211 895.909C613.74 915.796 559.903 944.17 521.71 974.863C502.613 990.209 487.365 1006.15 476.904 1021.94C466.442 1037.73 460.768 1053.32 460.768 1068.03C460.768 1073.55 461.557 1078.98 463.235 1084.21C466.146 1093.39 471.525 1101.48 479.026 1108.44C490.276 1118.9 506.264 1126.85 525.855 1132.18C545.445 1137.51 568.687 1140.22 594.347 1140.22C639.202 1140.22 691.706 1131.93 745.789 1114.71C808.261 1094.82 862.097 1066.45 900.291 1035.76C919.388 1020.41 934.635 1004.47 945.097 988.679C955.558 972.889 961.233 957.295 961.233 942.59C961.233 937.064 960.443 931.636 958.766 926.405C955.854 917.276 950.475 909.134 942.975 902.176ZM944.307 988.137C928.763 1011.63 902.462 1035.61 868.315 1057.42C834.217 1079.23 792.273 1098.87 745.493 1113.77C691.509 1130.94 639.103 1139.23 594.347 1139.23C560.15 1139.23 530.444 1134.4 507.843 1125.07C496.543 1120.38 487.02 1114.61 479.667 1107.75C472.265 1100.89 466.985 1092.95 464.123 1083.92C462.495 1078.78 461.705 1073.5 461.705 1068.03C461.705 1053.57 467.281 1038.12 477.693 1022.48C493.237 998.993 519.538 975.011 553.686 953.2C587.784 931.389 629.728 911.749 676.507 896.847C730.492 879.674 782.897 871.384 827.654 871.384C861.85 871.384 891.557 876.22 914.157 885.547C925.457 890.235 934.981 896.008 942.333 902.867C949.735 909.726 955.015 917.671 957.877 926.701C959.506 931.833 960.295 937.113 960.295 942.59C960.295 957.049 954.67 972.494 944.307 988.137Z" fill="url(#paint12_radial_2333_4484)"/>
<path d="M769.08 731.44C773.114 731.44 776.384 728.17 776.384 724.136C776.384 720.103 773.114 716.833 769.08 716.833C765.047 716.833 761.777 720.103 761.777 724.136C761.777 728.17 765.047 731.44 769.08 731.44Z" fill="url(#paint13_radial_2333_4484)"/>
<path d="M686.623 1135.78C690.03 1135.78 692.792 1133.02 692.792 1129.61C692.792 1126.2 690.03 1123.44 686.623 1123.44C683.217 1123.44 680.455 1126.2 680.455 1129.61C680.455 1133.02 683.217 1135.78 686.623 1135.78Z" fill="url(#paint14_radial_2333_4484)"/>
<path d="M1022.91 853.028C1028.28 853.028 1032.64 848.675 1032.64 843.307C1032.64 837.938 1028.28 833.585 1022.91 833.585C1017.55 833.585 1013.19 837.938 1013.19 843.307C1013.19 848.675 1017.55 853.028 1022.91 853.028Z" fill="url(#paint15_radial_2333_4484)"/>
<path d="M247.198 1145.85C253.167 1145.85 258.005 1141.01 258.005 1135.04C258.005 1129.07 253.167 1124.23 247.198 1124.23C241.23 1124.23 236.392 1129.07 236.392 1135.04C236.392 1141.01 241.23 1145.85 247.198 1145.85Z" fill="url(#paint16_radial_2333_4484)"/>
<path d="M605.992 676.404C237.231 794.39 -14.6796 1036.97 43.3017 1218.27C101.283 1399.57 447.247 1450.94 816.008 1332.95C1184.77 1215.01 1436.68 972.38 1378.7 791.083C1320.72 609.787 974.753 558.467 605.992 676.404Z" fill="url(#paint17_radial_2333_4484)"/>
<path d="M184.483 471.966C207.946 471.966 226.966 452.946 226.966 429.483C226.966 406.02 207.946 387 184.483 387C161.02 387 142 406.02 142 429.483C142 452.946 161.02 471.966 184.483 471.966Z" fill="url(#paint18_linear_2333_4484)"/>
<path d="M482.924 543.849C494.481 543.849 503.849 534.481 503.849 522.924C503.849 511.368 494.481 502 482.924 502C471.368 502 462 511.368 462 522.924C462 534.481 471.368 543.849 482.924 543.849Z" fill="url(#paint19_linear_2333_4484)"/>
<path d="M328.924 1181.85C340.481 1181.85 349.849 1172.48 349.849 1160.92C349.849 1149.37 340.481 1140 328.924 1140C317.368 1140 308 1149.37 308 1160.92C308 1172.48 317.368 1181.85 328.924 1181.85Z" fill="url(#paint20_linear_2333_4484)"/>
<path d="M1241 377C1250.94 377 1259 368.941 1259 359C1259 349.059 1250.94 341 1241 341C1231.06 341 1223 349.059 1223 359C1223 368.941 1231.06 377 1241 377Z" fill="url(#paint21_linear_2333_4484)"/>
<path d="M1117.74 991.649C1121.47 1005.55 1135.75 1013.79 1149.65 1010.07C1163.55 1006.35 1171.79 992.061 1168.07 978.164C1164.35 964.266 1150.06 956.019 1136.16 959.743C1122.27 963.466 1114.02 977.751 1117.74 991.649Z" fill="url(#paint22_linear_2333_4484)"/>
<g filter="url(#filter0_f_2333_4484)">
<circle cx="711" cy="997" r="85" fill="#D480EA"/>
</g>
<path d="M711.229 903L710.044 907.026V1023.85L711.229 1025.03L765.455 992.976L711.229 903Z" fill="#383ABC"/>
<path d="M711.227 903L657 992.976L711.227 1025.03V968.328V903Z" fill="#6769DA"/>
<path d="M711.227 1035.3L710.559 1036.11V1077.72L711.227 1079.67L765.485 1003.26L711.227 1035.3Z" fill="#4D4FB3"/>
<path d="M711.227 1079.67V1035.3L657 1003.26L711.227 1079.67Z" fill="#6769DA"/>
<path d="M711.226 1025.03L765.451 992.976L711.226 968.328V1025.03Z" fill="#20227B"/>
<path d="M657 992.976L711.227 1025.03V968.328L657 992.976Z" fill="#4D4FB3"/>
<path d="M257.979 104.021C255.907 101.948 97.0754 257.391 81.0581 273.409C65.0408 289.426 59.3361 298.495 61.4083 300.592C63.4806 302.688 72.5741 296.959 88.5914 280.942C104.609 264.925 260.052 106.093 257.979 104.021Z" fill="url(#paint23_linear_2333_4484)"/>
<path opacity="0.2" d="M121.089 240.911C120.041 239.863 71.794 286.427 66.9669 291.254C62.1398 296.081 60.7502 299.153 61.7985 300.202C62.8468 301.25 65.9186 299.86 70.7457 295.033C75.5728 290.206 122.137 241.959 121.089 240.911Z" fill="#29ABE2"/>
<path opacity="0.7" d="M92.0293 269.971C91.4929 269.435 67.333 292.766 64.9194 295.18C62.5058 297.593 61.7988 299.153 62.3351 299.665C62.8715 300.202 64.4074 299.495 66.821 297.081C69.2345 294.668 92.5412 270.508 92.0293 269.971Z" fill="white"/>
<path d="M1279.98 397.078C1278.44 395.532 1159.92 511.523 1147.97 523.475C1136.02 535.426 1131.76 542.194 1133.3 543.758C1134.85 545.323 1141.64 541.048 1153.59 529.096C1165.54 517.126 1281.53 398.625 1279.98 397.078Z" fill="url(#paint24_linear_2333_4484)"/>
<path opacity="0.2" d="M1177.84 499.225C1177.06 498.443 1141.05 533.189 1137.45 536.791C1133.85 540.393 1132.81 542.685 1133.6 543.467C1134.38 544.25 1136.67 543.213 1140.27 539.611C1143.87 536.009 1178.62 499.989 1177.84 499.225Z" fill="#29ABE2"/>
<path opacity="0.7" d="M1156.15 520.91C1155.75 520.509 1137.73 537.919 1135.92 539.72C1134.12 541.521 1133.6 542.685 1134 543.067C1134.4 543.449 1135.54 542.94 1137.34 541.139C1139.14 539.338 1156.54 521.292 1156.15 520.91Z" fill="white"/>
<defs>
<filter id="filter0_f_2333_4484" x="576" y="862" width="270" height="270" filterUnits="userSpaceOnUse" color-interpolation-filters="sRGB">
<feFlood flood-opacity="0" result="BackgroundImageFix"/>
<feBlend mode="normal" in="SourceGraphic" in2="BackgroundImageFix" result="shape"/>
<feGaussianBlur stdDeviation="25" result="effect1_foregroundBlur_2333_4484"/>
</filter>
<linearGradient id="paint0_linear_2333_4484" x1="155.696" y1="1182.07" x2="1266.35" y2="828.559" gradientUnits="userSpaceOnUse">
<stop stop-color="#0011A5"/>
<stop offset="1" stop-color="#8C1186"/>
</linearGradient>
<linearGradient id="paint1_linear_2333_4484" x1="250.867" y1="1151.78" x2="1171.17" y2="858.852" gradientUnits="userSpaceOnUse">
<stop stop-color="#0011A5"/>
<stop offset="1" stop-color="#8C1186"/>
</linearGradient>
<linearGradient id="paint2_linear_2333_4484" x1="358.688" y1="1117.46" x2="1063.35" y2="893.17" gradientUnits="userSpaceOnUse">
<stop stop-color="#0011A5"/>
<stop offset="1" stop-color="#8C1186"/>
</linearGradient>
<linearGradient id="paint3_linear_2333_4484" x1="463.687" y1="1084.04" x2="958.355" y2="926.591" gradientUnits="userSpaceOnUse">
<stop stop-color="#0011A5"/>
<stop offset="1" stop-color="#8C1186"/>
</linearGradient>
<radialGradient id="paint4_radial_2333_4484" cx="0" cy="0" r="1" gradientUnits="userSpaceOnUse" gradientTransform="translate(710.993 1005.26) rotate(-17.7385) scale(172.999 68.5871)">
<stop stop-color="white"/>
<stop offset="1" stop-color="white" stop-opacity="0"/>
</radialGradient>
<radialGradient id="paint5_radial_2333_4484" cx="0" cy="0" r="1" gradientUnits="userSpaceOnUse" gradientTransform="translate(710.951 1005.31) rotate(90) scale(249.542 464.245)">
<stop offset="0.654167" stop-color="#0011A5"/>
<stop offset="1" stop-color="#29ABE2" stop-opacity="0"/>
</radialGradient>
<radialGradient id="paint6_radial_2333_4484" cx="0" cy="0" r="1" gradientUnits="userSpaceOnUse" gradientTransform="translate(710.976 1005.36) rotate(90) scale(190.968 355.315)">
<stop offset="0.654167" stop-color="#0011A5"/>
<stop offset="1" stop-color="#29ABE2" stop-opacity="0"/>
</radialGradient>
<radialGradient id="paint7_radial_2333_4484" cx="0" cy="0" r="1" gradientUnits="userSpaceOnUse" gradientTransform="translate(710.95 1005.36) rotate(90) scale(133.925 249.295)">
<stop offset="0.654167" stop-color="#0011A5"/>
<stop offset="1" stop-color="#29ABE2" stop-opacity="0"/>
</radialGradient>
<radialGradient id="paint8_radial_2333_4484" cx="0" cy="0" r="1" gradientUnits="userSpaceOnUse" gradientTransform="translate(710.975 1005.31) rotate(90) scale(301.256 560.346)">
<stop offset="0.654167" stop-color="#0011A5"/>
<stop offset="1" stop-color="#29ABE2" stop-opacity="0"/>
</radialGradient>
<radialGradient id="paint9_radial_2333_4484" cx="0" cy="0" r="1" gradientUnits="userSpaceOnUse" gradientTransform="translate(711 1005.31) rotate(90) scale(302.292 561.309)">
<stop offset="0.654167" stop-color="#0011A5"/>
<stop offset="1" stop-color="#29ABE2" stop-opacity="0"/>
</radialGradient>
<radialGradient id="paint10_radial_2333_4484" cx="0" cy="0" r="1" gradientUnits="userSpaceOnUse" gradientTransform="translate(711 1005.31) rotate(90) scale(250.529 465.232)">
<stop offset="0.654167" stop-color="#0011A5"/>
<stop offset="1" stop-color="#29ABE2" stop-opacity="0"/>
</radialGradient>
<radialGradient id="paint11_radial_2333_4484" cx="0" cy="0" r="1" gradientUnits="userSpaceOnUse" gradientTransform="translate(710.975 1005.31) rotate(90) scale(191.955 356.301)">
<stop offset="0.654167" stop-color="#0011A5"/>
<stop offset="1" stop-color="#29ABE2" stop-opacity="0"/>
</radialGradient>
<radialGradient id="paint12_radial_2333_4484" cx="0" cy="0" r="1" gradientUnits="userSpaceOnUse" gradientTransform="translate(711 1005.31) rotate(90) scale(134.911 250.233)">
<stop offset="0.654167" stop-color="#0011A5"/>
<stop offset="1" stop-color="#29ABE2" stop-opacity="0"/>
</radialGradient>
<radialGradient id="paint13_radial_2333_4484" cx="0" cy="0" r="1" gradientUnits="userSpaceOnUse" gradientTransform="translate(769.056 724.133) scale(7.28403)">
<stop offset="0.022588" stop-color="#FCFDFE"/>
<stop offset="1" stop-color="#8C1186"/>
</radialGradient>
<radialGradient id="paint14_radial_2333_4484" cx="0" cy="0" r="1" gradientUnits="userSpaceOnUse" gradientTransform="translate(686.64 1129.62) rotate(180) scale(6.16818)">
<stop stop-color="white"/>
<stop offset="0.022588" stop-color="#FCFDFE"/>
<stop offset="1" stop-color="#0011A5"/>
</radialGradient>
<radialGradient id="paint15_radial_2333_4484" cx="0" cy="0" r="1" gradientUnits="userSpaceOnUse" gradientTransform="translate(1022.92 843.287) rotate(45) scale(9.71907)">
<stop stop-color="white"/>
<stop offset="0.022588" stop-color="#FCFDFE"/>
<stop offset="1" stop-color="#8C1186"/>
</radialGradient>
<radialGradient id="paint16_radial_2333_4484" cx="0" cy="0" r="1" gradientUnits="userSpaceOnUse" gradientTransform="translate(247.2 1135.07) rotate(-135) scale(10.8005)">
<stop stop-color="white"/>
<stop offset="0.022588" stop-color="#FCFDFE"/>
<stop offset="1" stop-color="#0011A5"/>
</radialGradient>
<radialGradient id="paint17_radial_2333_4484" cx="0" cy="0" r="1" gradientUnits="userSpaceOnUse" gradientTransform="translate(710.948 1004.71) rotate(-17.8514) scale(624.099 306.843)">
<stop stop-color="white"/>
<stop offset="1" stop-color="white" stop-opacity="0"/>
</radialGradient>
<linearGradient id="paint18_linear_2333_4484" x1="214.498" y1="459.512" x2="154.439" y2="399.453" gradientUnits="userSpaceOnUse">
<stop stop-color="#014DA8"/>
<stop offset="0.1388" stop-color="#024799" stop-opacity="0.8612"/>
<stop offset="0.3419" stop-color="#03418B" stop-opacity="0.6581"/>
<stop offset="0.589" stop-color="#043E83" stop-opacity="0.411"/>
<stop offset="1" stop-color="#043D80" stop-opacity="0"/>
</linearGradient>
<linearGradient id="paint19_linear_2333_4484" x1="497.741" y1="537.743" x2="468.131" y2="508.134" gradientUnits="userSpaceOnUse">
<stop stop-color="#710B6C"/>
<stop offset="1" stop-color="#014DA8"/>
</linearGradient>
<linearGradient id="paint20_linear_2333_4484" x1="343.721" y1="1146.12" x2="314.111" y2="1175.73" gradientUnits="userSpaceOnUse">
<stop stop-color="#014DA8"/>
<stop offset="0.1388" stop-color="#024799" stop-opacity="0.8612"/>
<stop offset="0.3419" stop-color="#03418B" stop-opacity="0.6581"/>
<stop offset="0.589" stop-color="#043E83" stop-opacity="0.411"/>
<stop offset="1" stop-color="#043D80" stop-opacity="0"/>
</linearGradient>
<linearGradient id="paint21_linear_2333_4484" x1="1228.27" y1="371.741" x2="1253.74" y2="346.269" gradientUnits="userSpaceOnUse">
<stop stop-color="#8C1186"/>
<stop offset="0.1388" stop-color="#7C0F77"/>
<stop offset="0.3419" stop-color="#610B5D"/>
<stop offset="0.589" stop-color="#560852"/>
<stop offset="1" stop-color="#380436"/>
</linearGradient>
<linearGradient id="paint22_linear_2333_4484" x1="1120.32" y1="971.877" x2="1165.47" y2="997.944" gradientUnits="userSpaceOnUse">
<stop stop-color="#8C1186"/>
<stop offset="0.1388" stop-color="#7C0F77"/>
<stop offset="0.3419" stop-color="#610B5D"/>
<stop offset="0.589" stop-color="#560852"/>
<stop offset="1" stop-color="#380436"/>
</linearGradient>
<linearGradient id="paint23_linear_2333_4484" x1="61.3948" y1="300.588" x2="257.957" y2="104.026" gradientUnits="userSpaceOnUse">
<stop stop-color="#014DA8"/>
<stop offset="0.1388" stop-color="#024799" stop-opacity="0.8612"/>
<stop offset="0.3419" stop-color="#03418B" stop-opacity="0.6581"/>
<stop offset="0.589" stop-color="#043E83" stop-opacity="0.411"/>
<stop offset="1" stop-color="#043D80" stop-opacity="0"/>
</linearGradient>
<linearGradient id="paint24_linear_2333_4484" x1="1133.3" y1="543.75" x2="1279.97" y2="397.077" gradientUnits="userSpaceOnUse">
<stop stop-color="#014DA8"/>
<stop offset="0.1388" stop-color="#024799" stop-opacity="0.8612"/>
<stop offset="0.3419" stop-color="#03418B" stop-opacity="0.6581"/>
<stop offset="0.589" stop-color="#043E83" stop-opacity="0.411"/>
<stop offset="1" stop-color="#043D80" stop-opacity="0"/>
</linearGradient>
</defs>
</svg>
