<svg width="1352" height="843" viewBox="0 0 1352 843" fill="none" xmlns="http://www.w3.org/2000/svg">
<path opacity="0.2" d="M1231.35 244.559C1188.36 109.493 904.878 79.136 598.181 176.755C291.483 274.375 77.7059 463.004 120.696 598.07C163.687 733.137 447.165 763.494 753.863 665.874C1060.56 568.255 1274.34 379.626 1231.35 244.559Z" fill="url(#paint0_linear_1417_3842)"/>
<path opacity="0.2" d="M1136.18 274.852C1100.55 162.924 865.652 137.762 611.516 218.652C357.38 299.541 180.242 455.85 215.868 567.778C251.494 679.706 486.392 704.867 740.528 623.978C994.664 543.089 1171.8 386.78 1136.18 274.852Z" fill="url(#paint1_linear_1417_3842)"/>
<path opacity="0.2" d="M1028.35 309.17C1001.08 223.471 821.22 204.208 626.632 266.143C432.044 328.079 296.411 447.761 323.688 533.459C350.966 619.158 530.823 638.422 725.411 576.486C919.999 514.55 1055.63 394.869 1028.35 309.17Z" fill="url(#paint2_linear_1417_3842)"/>
<path opacity="0.2" d="M923.355 342.591C904.212 282.446 777.958 268.934 641.359 312.413C504.76 355.891 409.544 439.894 428.688 500.039C447.832 560.184 574.086 573.695 710.684 530.217C847.283 486.739 942.499 402.736 923.355 342.591Z" fill="url(#paint3_linear_1417_3842)"/>
<path d="M655.127 355.975C564.133 385.089 499.688 437.938 511.234 474.01C522.781 510.082 605.88 515.757 696.923 486.643C787.916 457.529 852.362 404.679 840.815 368.608C829.268 332.536 746.121 326.861 655.127 355.975Z" fill="url(#paint4_radial_1417_3842)"/>
<path d="M1106.64 230.489C1092.82 217.659 1075.11 206.852 1054.04 198.167C1011.95 180.748 956.58 171.767 892.924 171.767C809.628 171.767 712.121 187.163 611.604 219.139C437.462 274.554 299.541 365.449 241.51 452.989C222.166 482.202 211.705 510.97 211.705 537.962C211.705 548.128 213.185 558.046 216.245 567.619C221.624 584.446 231.493 599.299 245.26 612.129C259.077 624.959 276.792 635.766 297.863 644.451C339.955 661.87 395.321 670.851 458.977 670.851C542.273 670.851 639.78 655.455 740.298 623.479C914.439 568.063 1052.36 477.168 1110.39 389.629C1129.73 360.416 1140.2 331.648 1140.2 304.655C1140.2 294.49 1138.72 284.572 1135.66 274.999C1130.33 258.172 1120.46 243.319 1106.64 230.489ZM1009.33 397.524C994.478 419.977 972.815 442.676 945.576 464.536C891.148 508.256 814.464 548.621 725.494 576.946C648.465 601.471 573.755 613.264 509.853 613.264C473.238 613.264 440.226 609.415 412.296 601.816C384.415 594.217 361.618 582.917 345.63 568.063C334.971 558.145 327.322 546.647 323.177 533.62C320.809 526.169 319.674 518.52 319.674 510.625C319.674 489.752 327.766 467.546 342.62 445.094C357.473 422.641 379.135 399.942 406.374 378.082C460.803 334.362 537.486 293.997 626.457 265.672C703.486 241.147 778.195 229.354 842.098 229.354C878.713 229.354 911.725 233.203 939.655 240.802C967.535 248.401 990.333 259.701 1006.32 274.554C1016.98 284.473 1024.63 295.971 1028.77 308.998C1031.14 316.4 1032.28 324.098 1032.28 331.993C1032.33 352.866 1024.23 375.072 1009.33 397.524Z" fill="url(#paint5_radial_1417_3842)"/>
<path d="M1005.63 275.295C995.07 265.475 981.5 257.234 965.413 250.572C933.19 237.249 890.802 230.39 842.098 230.39C778.343 230.39 703.683 242.184 626.753 266.659C493.47 309.097 387.87 378.674 343.458 445.686C328.655 468.039 320.661 490.048 320.661 510.674C320.661 518.471 321.796 526.021 324.115 533.373C328.211 546.253 335.76 557.602 346.32 567.422C356.88 577.242 370.451 585.482 386.537 592.144C418.76 605.468 461.148 612.327 509.853 612.327C573.607 612.327 648.267 600.533 725.198 576.057C858.481 533.62 964.081 464.042 1008.49 397.031C1023.3 374.677 1031.29 352.669 1031.29 332.042C1031.29 324.246 1030.15 316.696 1027.84 309.343C1023.74 296.464 1016.19 285.114 1005.63 275.295ZM910.146 404.679C899.684 420.47 884.486 436.409 865.34 451.755C827.097 482.448 773.31 510.822 710.838 530.709C656.755 547.93 604.3 556.22 559.396 556.22C533.686 556.22 510.494 553.506 490.904 548.177C471.313 542.848 455.325 534.903 444.075 524.442C436.574 517.484 431.195 509.391 428.284 500.213C426.606 494.982 425.817 489.554 425.817 484.027C425.817 469.322 431.491 453.729 441.953 437.938C452.414 422.148 467.612 406.209 486.759 390.863C525.002 360.169 578.789 331.796 641.26 311.909C695.343 294.688 747.798 286.397 792.703 286.397C818.412 286.397 841.604 289.112 861.195 294.441C880.785 299.77 896.773 307.715 908.024 318.176C915.524 325.134 920.903 333.227 923.815 342.405C925.492 347.636 926.282 353.064 926.282 358.59C926.282 373.295 920.558 388.938 910.146 404.679Z" fill="url(#paint6_radial_1417_3842)"/>
<path d="M907.284 318.916C899.882 312.057 890.358 306.235 879.108 301.596C856.507 292.27 826.801 287.434 792.604 287.434C747.848 287.434 695.492 295.724 641.458 312.896C594.678 327.799 552.784 347.438 518.636 369.249C484.538 391.06 458.237 415.042 442.644 438.531C432.281 454.173 426.656 469.618 426.656 484.077C426.656 489.505 427.445 494.834 429.074 499.966C431.936 508.947 437.216 516.892 444.618 523.8C452.019 530.659 461.543 536.482 472.794 541.121C495.394 550.447 525.101 555.283 559.297 555.283C604.054 555.283 656.41 546.993 710.444 529.82C757.223 514.918 799.118 495.278 833.265 473.467C867.363 451.657 893.665 427.675 909.258 404.186C919.62 388.543 925.246 373.098 925.246 358.64C925.246 353.212 924.456 347.882 922.828 342.75C919.966 333.72 914.686 325.775 907.284 318.916Z" fill="url(#paint7_radial_1417_3842)"/>
<path d="M1230.84 244.7C1224.38 224.37 1212.44 206.457 1195.76 190.963C1179.08 175.468 1157.66 162.441 1132.25 151.93C1081.43 130.909 1014.61 120.053 937.78 120.053C837.213 120.053 719.572 138.656 598.28 177.245C388.116 244.108 221.624 353.804 151.602 459.503C128.261 494.736 115.629 529.524 115.629 562.093C115.629 574.38 117.405 586.321 121.106 597.918C127.571 618.248 139.512 636.161 156.191 651.655C172.87 667.15 194.286 680.177 219.699 690.688C270.525 711.709 337.34 722.565 414.171 722.565C514.738 722.565 632.378 703.962 753.67 665.373C963.834 598.51 1130.33 488.814 1200.35 383.115C1223.69 347.882 1236.32 313.094 1236.32 280.525C1236.32 268.238 1234.55 256.247 1230.84 244.7ZM1111.28 390.172C1091.89 419.483 1063.56 449.091 1028.03 477.612C956.975 534.706 856.852 587.407 740.643 624.416C640.027 656.442 542.47 671.838 459.026 671.838C411.21 671.838 368.082 666.804 331.665 656.886C295.248 646.967 265.542 632.262 244.668 612.869C230.753 599.941 220.785 584.94 215.357 567.915C212.297 558.244 210.768 548.226 210.768 537.962C210.768 510.724 221.328 481.758 240.721 452.446C260.113 423.135 288.438 393.527 323.967 365.005C395.025 307.912 495.148 255.211 611.357 218.202C711.973 186.176 809.53 170.78 892.974 170.78C940.79 170.78 983.918 175.813 1020.34 185.732C1056.75 195.65 1086.46 210.356 1107.33 229.748C1121.25 242.677 1131.22 257.678 1136.64 274.703C1139.7 284.374 1141.23 294.391 1141.23 304.655C1141.23 331.894 1130.67 360.86 1111.28 390.172Z" fill="url(#paint8_radial_1417_3842)"/>
<path d="M1231.78 244.404C1225.27 223.926 1213.23 205.816 1196.45 190.222C1171.28 166.833 1135.46 149.068 1091.49 137.077C1047.52 125.135 995.465 119.016 937.829 119.016C837.163 119.016 719.375 137.62 597.984 176.258C457.793 220.866 336.994 284.522 251.231 353.409C208.35 387.852 174.202 423.579 150.813 458.96C127.373 494.291 114.691 529.278 114.691 562.093C114.691 574.478 116.517 586.568 120.218 598.214C126.732 618.692 138.772 636.802 155.55 652.395C180.716 675.785 216.541 693.55 260.508 705.541C304.475 717.483 356.535 723.601 414.171 723.601C514.837 723.601 632.625 704.998 754.016 666.36C894.207 621.752 1015.01 558.096 1100.77 489.209C1143.65 454.765 1177.8 419.039 1201.19 383.658C1224.63 348.326 1237.31 313.34 1237.31 280.525C1237.31 268.139 1235.48 256.05 1231.78 244.404ZM1200.35 383.115C1130.33 488.814 963.834 598.51 753.67 665.373C632.378 703.962 514.689 722.565 414.171 722.565C337.389 722.565 270.525 711.709 219.699 690.688C194.286 680.177 172.87 667.15 156.191 651.655C139.512 636.161 127.571 618.199 121.106 597.918C117.405 586.321 115.629 574.38 115.629 562.093C115.629 529.524 128.261 494.736 151.602 459.503C221.624 353.804 388.117 244.108 598.28 177.245C719.572 138.656 837.262 120.053 937.78 120.053C1014.56 120.053 1081.43 130.909 1132.25 151.93C1157.66 162.441 1179.08 175.468 1195.76 190.963C1212.44 206.457 1224.38 224.419 1230.84 244.7C1234.55 256.296 1236.32 268.238 1236.32 280.525C1236.32 313.094 1223.69 347.882 1200.35 383.115Z" fill="url(#paint9_radial_1417_3842)"/>
<path d="M1107.33 229.748C1086.46 210.356 1056.75 195.601 1020.34 185.732C983.918 175.813 940.74 170.78 892.974 170.78C809.53 170.78 711.973 186.176 611.357 218.202C495.197 255.162 395.074 307.912 323.967 365.005C288.438 393.527 260.163 423.184 240.72 452.446C221.328 481.758 210.768 510.724 210.768 537.962C210.768 548.226 212.248 558.244 215.357 567.915C220.785 584.89 230.753 599.941 244.668 612.869C265.541 632.262 295.248 647.017 331.665 656.886C368.082 666.804 411.26 671.838 459.026 671.838C542.47 671.838 640.027 656.442 740.643 624.416C856.803 587.456 956.926 534.706 1028.03 477.613C1063.56 449.091 1091.84 419.434 1111.28 390.172C1130.67 360.86 1141.23 331.894 1141.23 304.655C1141.23 294.391 1139.75 284.374 1136.64 274.703C1131.22 257.678 1121.25 242.677 1107.33 229.748ZM1110.44 389.629C1052.41 477.218 914.488 568.063 740.347 623.479C639.829 655.455 542.322 670.851 459.026 670.851C395.37 670.851 340.054 661.87 297.912 644.451C276.842 635.766 259.126 624.959 245.31 612.129C231.493 599.299 221.624 584.446 216.294 567.619C213.235 558.046 211.754 548.128 211.754 537.962C211.754 510.97 222.216 482.152 241.559 452.989C299.59 365.4 437.512 274.554 611.653 219.139C712.17 187.163 809.678 171.767 892.974 171.767C956.63 171.767 1011.95 180.748 1054.09 198.167C1075.16 206.852 1092.87 217.659 1106.69 230.489C1120.51 243.319 1130.38 258.172 1135.75 274.999C1138.81 284.572 1140.29 294.49 1140.29 304.655C1140.25 331.648 1129.78 360.416 1110.44 389.629Z" fill="url(#paint10_radial_1417_3842)"/>
<path d="M1006.32 274.554C990.333 259.701 967.584 248.401 939.655 240.802C911.774 233.203 878.713 229.354 842.098 229.354C778.195 229.354 703.486 241.147 626.457 265.672C537.486 293.997 460.852 334.362 406.374 378.082C379.136 399.942 357.473 422.641 342.62 445.094C327.767 467.546 319.674 489.752 319.674 510.625C319.674 518.471 320.809 526.169 323.177 533.62C327.322 546.647 334.971 558.145 345.63 568.063C361.618 582.917 384.366 594.217 412.296 601.816C440.176 609.415 473.238 613.264 509.853 613.264C573.755 613.264 648.465 601.471 725.494 576.946C814.464 548.621 891.098 508.256 945.576 464.536C972.815 442.676 994.478 419.977 1009.33 397.524C1024.18 375.072 1032.28 352.866 1032.28 331.993C1032.28 324.147 1031.14 316.449 1028.77 308.998C1024.63 295.971 1016.98 284.473 1006.32 274.554ZM1008.54 396.981C964.18 463.993 858.53 533.571 725.247 576.008C648.317 600.484 573.657 612.277 509.902 612.277C461.198 612.277 418.81 605.418 386.587 592.095C370.5 585.433 356.93 577.143 346.37 567.373C335.81 557.553 328.26 546.203 324.164 533.324C321.845 526.021 320.71 518.422 320.71 510.625C320.71 489.998 328.704 467.941 343.508 445.636C387.919 378.625 493.519 309.047 626.802 266.61C703.732 242.134 778.393 230.341 842.147 230.341C890.852 230.341 933.24 237.2 965.463 250.523C981.549 257.185 995.119 265.475 1005.68 275.245C1016.24 285.065 1023.79 296.415 1027.89 309.294C1030.2 316.597 1031.34 324.196 1031.34 331.993C1031.34 352.62 1023.35 374.628 1008.54 396.981Z" fill="url(#paint11_radial_1417_3842)"/>
<path d="M907.975 318.176C896.724 307.715 880.736 299.77 861.146 294.441C841.555 289.112 818.314 286.397 792.654 286.397C747.798 286.397 695.294 294.688 641.211 311.909C578.74 331.796 524.903 360.17 486.71 390.863C467.613 406.209 452.365 422.148 441.904 437.938C431.442 453.729 425.768 469.322 425.768 484.027C425.768 489.554 426.557 494.982 428.235 500.213C431.146 509.391 436.525 517.484 444.026 524.442C455.276 534.903 471.264 542.848 490.855 548.177C510.445 553.506 533.687 556.22 559.347 556.22C604.202 556.22 656.706 547.93 710.789 530.709C773.261 510.822 827.097 482.448 865.291 451.755C884.388 436.409 899.635 420.47 910.097 404.679C920.558 388.889 926.233 373.295 926.233 358.59C926.233 353.064 925.443 347.636 923.766 342.405C920.854 333.276 915.475 325.134 907.975 318.176ZM909.307 404.137C893.763 427.625 867.462 451.607 833.315 473.418C799.217 495.229 757.273 514.869 710.493 529.771C656.509 546.943 604.103 555.234 559.347 555.234C525.15 555.234 495.444 550.398 472.843 541.071C461.543 536.383 452.02 530.61 444.667 523.751C437.265 516.892 431.985 508.947 429.123 499.917C427.495 494.785 426.705 489.505 426.705 484.027C426.705 469.569 432.281 454.124 442.693 438.481C458.237 414.993 484.538 391.011 518.686 369.2C552.784 347.389 594.728 327.749 641.507 312.847C695.492 295.674 747.897 287.384 792.654 287.384C826.85 287.384 856.557 292.22 879.157 301.547C890.457 306.235 899.981 312.008 907.333 318.867C914.735 325.726 920.015 333.671 922.877 342.701C924.506 347.833 925.295 353.113 925.295 358.59C925.295 373.049 919.67 388.494 909.307 404.137Z" fill="url(#paint12_radial_1417_3842)"/>
<path d="M734.08 147.44C738.113 147.44 741.383 144.17 741.383 140.136C741.383 136.103 738.113 132.833 734.08 132.833C730.047 132.833 726.777 136.103 726.777 140.136C726.777 144.17 730.047 147.44 734.08 147.44Z" fill="url(#paint13_radial_1417_3842)"/>
<path d="M651.623 551.779C655.03 551.779 657.792 549.018 657.792 545.611C657.792 542.204 655.03 539.443 651.623 539.443C648.217 539.443 645.455 542.204 645.455 545.611C645.455 549.018 648.217 551.779 651.623 551.779Z" fill="url(#paint14_radial_1417_3842)"/>
<path d="M987.915 269.028C993.284 269.028 997.636 264.675 997.636 259.307C997.636 253.938 993.284 249.585 987.915 249.585C982.546 249.585 978.194 253.938 978.194 259.307C978.194 264.675 982.546 269.028 987.915 269.028Z" fill="url(#paint15_radial_1417_3842)"/>
<path d="M212.199 561.846C218.167 561.846 223.006 557.007 223.006 551.039C223.006 545.071 218.167 540.232 212.199 540.232C206.23 540.232 201.392 545.071 201.392 551.039C201.392 557.007 206.23 561.846 212.199 561.846Z" fill="url(#paint16_radial_1417_3842)"/>
<path d="M570.992 92.4038C202.231 210.39 -49.6796 452.974 8.30171 634.27C66.283 815.567 412.247 866.936 781.008 748.95C1149.77 631.013 1401.68 388.38 1343.7 207.083C1285.72 25.7869 939.753 -25.5327 570.992 92.4038Z" fill="url(#paint17_radial_1417_3842)"/>
<defs>
<linearGradient id="paint0_linear_1417_3842" x1="120.696" y1="598.07" x2="1231.35" y2="244.559" gradientUnits="userSpaceOnUse">
<stop stop-color="#0011A5"/>
<stop offset="1" stop-color="#8C1186"/>
</linearGradient>
<linearGradient id="paint1_linear_1417_3842" x1="215.868" y1="567.778" x2="1136.18" y2="274.852" gradientUnits="userSpaceOnUse">
<stop stop-color="#0011A5"/>
<stop offset="1" stop-color="#8C1186"/>
</linearGradient>
<linearGradient id="paint2_linear_1417_3842" x1="323.688" y1="533.459" x2="1028.35" y2="309.17" gradientUnits="userSpaceOnUse">
<stop stop-color="#0011A5"/>
<stop offset="1" stop-color="#8C1186"/>
</linearGradient>
<linearGradient id="paint3_linear_1417_3842" x1="428.688" y1="500.039" x2="923.355" y2="342.591" gradientUnits="userSpaceOnUse">
<stop stop-color="#0011A5"/>
<stop offset="1" stop-color="#8C1186"/>
</linearGradient>
<radialGradient id="paint4_radial_1417_3842" cx="0" cy="0" r="1" gradientUnits="userSpaceOnUse" gradientTransform="translate(675.993 421.265) rotate(-17.7385) scale(172.999 68.5871)">
<stop stop-color="white"/>
<stop offset="1" stop-color="white" stop-opacity="0"/>
</radialGradient>
<radialGradient id="paint5_radial_1417_3842" cx="0" cy="0" r="1" gradientUnits="userSpaceOnUse" gradientTransform="translate(675.951 421.309) rotate(90) scale(249.542 464.245)">
<stop offset="0.654167" stop-color="#0011A5"/>
<stop offset="1" stop-color="#29ABE2" stop-opacity="0"/>
</radialGradient>
<radialGradient id="paint6_radial_1417_3842" cx="0" cy="0" r="1" gradientUnits="userSpaceOnUse" gradientTransform="translate(675.975 421.358) rotate(90) scale(190.968 355.315)">
<stop offset="0.654167" stop-color="#0011A5"/>
<stop offset="1" stop-color="#29ABE2" stop-opacity="0"/>
</radialGradient>
<radialGradient id="paint7_radial_1417_3842" cx="0" cy="0" r="1" gradientUnits="userSpaceOnUse" gradientTransform="translate(675.951 421.358) rotate(90) scale(133.925 249.295)">
<stop offset="0.654167" stop-color="#0011A5"/>
<stop offset="1" stop-color="#29ABE2" stop-opacity="0"/>
</radialGradient>
<radialGradient id="paint8_radial_1417_3842" cx="0" cy="0" r="1" gradientUnits="userSpaceOnUse" gradientTransform="translate(675.975 421.309) rotate(90) scale(301.256 560.346)">
<stop offset="0.654167" stop-color="#0011A5"/>
<stop offset="1" stop-color="#29ABE2" stop-opacity="0"/>
</radialGradient>
<radialGradient id="paint9_radial_1417_3842" cx="0" cy="0" r="1" gradientUnits="userSpaceOnUse" gradientTransform="translate(676 421.309) rotate(90) scale(302.292 561.309)">
<stop offset="0.654167" stop-color="#0011A5"/>
<stop offset="1" stop-color="#29ABE2" stop-opacity="0"/>
</radialGradient>
<radialGradient id="paint10_radial_1417_3842" cx="0" cy="0" r="1" gradientUnits="userSpaceOnUse" gradientTransform="translate(676 421.309) rotate(90) scale(250.529 465.232)">
<stop offset="0.654167" stop-color="#0011A5"/>
<stop offset="1" stop-color="#29ABE2" stop-opacity="0"/>
</radialGradient>
<radialGradient id="paint11_radial_1417_3842" cx="0" cy="0" r="1" gradientUnits="userSpaceOnUse" gradientTransform="translate(675.975 421.309) rotate(90) scale(191.955 356.301)">
<stop offset="0.654167" stop-color="#0011A5"/>
<stop offset="1" stop-color="#29ABE2" stop-opacity="0"/>
</radialGradient>
<radialGradient id="paint12_radial_1417_3842" cx="0" cy="0" r="1" gradientUnits="userSpaceOnUse" gradientTransform="translate(676 421.309) rotate(90) scale(134.911 250.233)">
<stop offset="0.654167" stop-color="#0011A5"/>
<stop offset="1" stop-color="#29ABE2" stop-opacity="0"/>
</radialGradient>
<radialGradient id="paint13_radial_1417_3842" cx="0" cy="0" r="1" gradientUnits="userSpaceOnUse" gradientTransform="translate(734.056 140.133) scale(7.28403)">
<stop offset="0.022588" stop-color="#FCFDFE"/>
<stop offset="1" stop-color="#8C1186"/>
</radialGradient>
<radialGradient id="paint14_radial_1417_3842" cx="0" cy="0" r="1" gradientUnits="userSpaceOnUse" gradientTransform="translate(651.64 545.624) rotate(180) scale(6.16818)">
<stop stop-color="white"/>
<stop offset="0.022588" stop-color="#FCFDFE"/>
<stop offset="1" stop-color="#0011A5"/>
</radialGradient>
<radialGradient id="paint15_radial_1417_3842" cx="0" cy="0" r="1" gradientUnits="userSpaceOnUse" gradientTransform="translate(987.924 259.287) rotate(45) scale(9.71907)">
<stop stop-color="white"/>
<stop offset="0.022588" stop-color="#FCFDFE"/>
<stop offset="1" stop-color="#8C1186"/>
</radialGradient>
<radialGradient id="paint16_radial_1417_3842" cx="0" cy="0" r="1" gradientUnits="userSpaceOnUse" gradientTransform="translate(212.201 551.066) rotate(-135) scale(10.8005)">
<stop stop-color="white"/>
<stop offset="0.022588" stop-color="#FCFDFE"/>
<stop offset="1" stop-color="#0011A5"/>
</radialGradient>
<radialGradient id="paint17_radial_1417_3842" cx="0" cy="0" r="1" gradientUnits="userSpaceOnUse" gradientTransform="translate(675.948 420.71) rotate(-17.8514) scale(624.099 306.843)">
<stop stop-color="white"/>
<stop offset="1" stop-color="white" stop-opacity="0"/>
</radialGradient>
</defs>
</svg>
