<svg width="232" height="55" viewBox="0 0 232 55" fill="none" xmlns="http://www.w3.org/2000/svg">
<path d="M231.94 28.7635C231.897 28.7289 231.835 28.718 231.787 28.7339C231.727 28.7517 231.673 28.7672 231.622 28.7818L231.597 28.7889C231.471 28.825 231.362 28.8559 231.254 28.8983C229.55 29.5606 228.208 30.6953 227.152 32.367C226.891 32.7801 226.689 33.2094 226.528 33.6376C226.792 32.1973 226.853 31.6362 226.9 30.0247C226.902 29.957 226.902 29.8882 226.902 29.8199C226.902 29.6335 226.902 29.4574 226.944 29.2967C226.994 29.1063 227.094 28.9164 227.191 28.7326C227.218 28.6806 227.246 28.6286 227.268 28.5829C227.276 28.5739 227.302 28.5588 227.311 28.5573C227.799 28.4845 228.23 28.2821 228.63 27.9387C229.032 27.5909 229.363 27.1652 229.614 26.6731C230.513 24.9091 230.963 22.9594 230.952 20.8788C230.951 20.678 230.927 20.4826 230.9 20.2701C230.888 20.1749 230.876 20.0775 230.866 19.9767C230.86 19.9214 230.825 19.8722 230.775 19.8482C230.725 19.8247 230.665 19.8263 230.615 19.8561C230.584 19.8747 230.558 19.8898 230.535 19.9032C230.489 19.9298 230.454 19.9506 230.421 19.9739C229.654 20.5117 228.977 21.1813 228.409 21.9636C227.483 23.2422 226.944 24.688 226.799 26.2784C226.785 26.1011 226.77 25.9239 226.756 25.7466L226.751 25.6823C226.694 24.9872 226.635 24.2684 226.587 23.5616C226.575 23.3826 226.54 23.2085 226.506 23.04C226.44 22.7162 226.378 22.4103 226.477 22.0897C226.5 22.0173 226.519 21.9443 226.538 21.8716C226.585 21.6913 226.811 21.4136 227.159 21.1101L227.172 21.0986C227.301 20.9923 227.959 20.4027 228.333 19.2366C228.713 18.0519 228.684 16.814 228.663 15.9101L228.662 15.886C228.635 14.6435 228.497 13.7072 228.217 12.8496C228.181 12.74 228.138 12.6318 228.093 12.5181C228.069 12.459 228.045 12.3979 228.02 12.3339C228 12.2797 227.951 12.2403 227.893 12.231L227.865 12.2285C227.816 12.2285 227.769 12.2503 227.738 12.2879L227.466 12.612C226.162 14.1676 225.521 15.992 225.561 18.0348C225.568 18.3945 225.596 18.7636 225.644 19.1446C225.313 18.0258 224.924 16.9368 224.482 15.8892C224.473 15.8663 224.467 15.8378 224.466 15.8137L224.463 15.6705C224.459 15.4638 224.454 15.25 224.463 15.0396C224.464 15.0047 224.487 14.9421 224.535 14.8804C224.604 14.7922 224.68 14.706 224.758 14.6162C224.892 14.464 225.03 14.3068 225.139 14.1274C225.492 13.5502 225.657 12.8682 225.66 11.9811C225.665 10.9368 225.5 9.83784 225.141 8.52236C224.945 7.80472 224.649 6.8724 224.098 6.02715C224.061 5.97032 224.019 5.91682 223.974 5.86016C223.954 5.83507 223.933 5.80832 223.912 5.77957C223.881 5.73853 223.837 5.71461 223.768 5.71461C223.712 5.71859 223.663 5.7495 223.635 5.79752C222.943 7.01862 222.598 8.32314 222.582 9.78567C222.568 11.0051 222.763 12.0544 223.007 12.8837C222.386 11.7736 221.695 10.701 220.947 9.68365L220.93 9.66055C220.913 9.63845 220.905 9.62765 220.907 9.63529C220.86 9.30613 220.827 9.04277 220.804 8.81347C220.805 8.80998 220.809 8.79071 220.844 8.73355C220.894 8.65113 220.948 8.57038 221.006 8.48497C221.121 8.31316 221.24 8.13538 221.317 7.93632C221.548 7.33549 221.599 6.65407 221.475 5.85385C221.201 4.08276 220.403 2.48797 219.035 0.97808C218.894 0.823054 218.738 0.685972 218.574 0.541082L218.528 0.500705C218.464 0.443713 218.398 0.385391 218.331 0.323746C218.288 0.2842 218.227 0.269412 218.168 0.286361C218.113 0.303641 218.07 0.348836 218.057 0.404997L218.027 0.533273C218.006 0.618346 217.99 0.685474 217.979 0.752935C217.795 1.82798 217.808 2.97946 218.02 4.27351C218.23 5.55692 218.649 6.66387 219.293 7.62543C218.328 6.51416 217.39 5.58101 216.41 4.75404C216.405 4.74839 216.399 4.73128 216.398 4.72696C216.475 4.08143 216.312 3.47329 215.9 2.86781C215.36 2.07207 214.608 1.46559 213.667 1.06548C213.104 0.826543 212.52 0.615023 211.949 0.407823C211.675 0.308459 211.401 0.209429 211.119 0.103253C210.836 -0.00691017 210.715 -0.026517 210.649 0.0329679C210.565 0.110066 210.585 0.175865 210.622 0.295499L210.634 0.334546C210.979 1.4724 211.438 2.37232 212.035 3.08564C213.133 4.39647 214.417 5.06243 215.958 5.12125C216.012 5.12441 216.055 5.13903 216.072 5.15232C216.289 5.31117 216.449 5.43828 216.59 5.56423C217.036 5.96335 217.476 6.38855 217.906 6.83635C217.266 6.44753 216.484 6.27207 215.604 6.3156C215.122 6.33936 214.643 6.40849 214.18 6.47528L214.163 6.47794C214.026 6.49755 213.89 6.51699 213.754 6.53576C213.457 6.57514 213.157 6.62665 212.892 6.67185C212.785 6.69062 212.529 6.74762 212.47 6.86908C212.45 6.91062 212.452 6.95615 212.475 6.99752C212.495 7.03358 212.517 7.06747 212.542 7.09838C213.306 8.06792 214.178 8.70646 215.207 9.05025C216.461 9.47163 217.613 9.4369 218.649 8.94125C218.807 8.85601 218.998 8.81281 219.216 8.81281C219.381 8.81281 219.504 8.83823 219.545 8.84737C219.607 8.85734 219.69 8.8909 219.707 8.9125C220.351 9.74047 220.962 10.6248 221.533 11.5538C221.051 11.0952 220.422 10.7859 219.565 10.5846C218.814 10.4096 218.047 10.372 217.305 10.3355L217.056 10.3232C216.823 10.3116 216.59 10.2971 216.351 10.2823L215.949 10.2581C215.897 10.2581 215.847 10.2826 215.817 10.3235C215.784 10.3676 215.776 10.4247 215.795 10.4761C215.811 10.5189 215.841 10.5945 215.856 10.6198C216.639 11.9002 217.558 12.7858 218.666 13.3275C219.749 13.8566 220.727 13.9965 221.714 13.7657C221.828 13.7388 221.961 13.7245 222.097 13.7245C222.517 13.7245 222.81 13.8497 222.871 13.9657C223.414 15.0612 223.899 16.1996 224.317 17.3607C223.879 16.7697 223.266 16.2896 222.49 15.9306C221.718 15.5746 220.916 15.2493 220.126 14.9291C219.786 14.7919 219.445 14.6541 219.106 14.5132C219.056 14.4916 218.996 14.4961 218.949 14.5265C218.903 14.5566 218.875 14.6068 218.875 14.6608C218.875 14.7645 220.002 17.8219 221.638 19.0268C222.305 19.5183 223.127 20.0239 224.164 20.0476C224.474 20.0538 224.795 20.0967 225.037 20.366C225.074 20.4089 225.123 20.4423 225.177 20.46C225.259 20.4866 225.282 20.5361 225.323 20.705C225.659 22.0834 225.903 23.5042 226.054 24.947C226.008 24.8006 225.955 24.6527 225.895 24.503C225.529 23.595 224.912 22.8004 223.955 22.0023C223.462 21.5893 222.946 21.1893 222.446 20.8023L222.422 20.7841C222.195 20.6078 221.968 20.4321 221.742 20.2543C221.695 20.2176 221.649 20.1797 221.596 20.1355L221.455 20.0172C221.406 19.9764 221.332 19.9679 221.275 19.9961C221.215 20.0255 221.18 20.0864 221.184 20.1513C221.191 20.2489 221.197 20.3411 221.202 20.4296L221.205 20.471C221.216 20.6533 221.227 20.8253 221.245 20.9951C221.422 22.6485 221.925 24.029 222.782 25.2152C223.313 25.9484 224.074 26.8447 225.261 27.2686C225.55 27.3723 225.759 27.5293 225.984 27.8111C226.196 28.0749 226.235 28.316 226.23 28.6194C226.21 29.8904 226.117 31.1512 225.954 32.3859C225.916 32.0423 225.835 31.6886 225.711 31.321C225.454 30.56 225.053 29.8201 224.486 29.0591C223.996 28.4001 223.487 27.7388 222.994 27.0989L222.961 27.0562C222.766 26.8028 222.571 26.5491 222.38 26.3009C222.345 26.2499 222.293 26.2316 222.264 26.2214C222.221 26.2013 222.171 26.1993 222.126 26.218C222.083 26.2362 222.049 26.2723 222.034 26.3165L222.028 26.3338C222.02 26.357 222.014 26.3776 222.01 26.3982C221.671 28.3798 221.879 30.1553 222.648 31.8265C223.023 32.6437 223.526 33.5688 224.414 34.2345C224.819 34.5384 225.139 34.9647 225.315 35.4348C225.352 35.536 225.351 35.5798 225.346 35.5968C224.971 37.1185 224.48 38.5862 223.883 39.9752C224.037 39.2431 224.026 38.4742 223.851 37.6774C223.602 36.5482 223.174 35.4539 222.793 34.5168L222.678 34.2361C222.5 33.797 222.319 33.3543 222.133 32.8955C222.11 32.8369 222.053 32.7968 221.977 32.7932C221.917 32.7932 221.862 32.8266 221.833 32.8808L221.774 32.9911C221.747 33.0394 221.723 33.0845 221.701 33.131C220.934 34.8248 220.675 36.5612 220.931 38.2919C221.115 39.5294 221.426 40.4156 221.94 41.1653C222.205 41.5528 222.458 41.9844 222.504 42.5153C222.515 42.6409 222.51 42.7275 222.452 42.826C221.804 43.9358 221.078 44.9831 220.282 45.9561C220.285 45.9508 220.288 45.9455 220.291 45.9402C220.864 44.9171 220.881 43.811 220.823 42.8638C220.772 42.0517 220.677 41.2409 220.585 40.4569L220.58 40.4116C220.543 40.0975 220.507 39.7837 220.473 39.4691C220.454 39.2908 220.432 39.1126 220.41 38.9316L220.38 38.6867C220.374 38.6325 220.34 38.5857 220.292 38.5621C220.201 38.5159 220.055 38.5872 219.897 38.7699C218.811 40.0259 218.137 41.4453 217.894 42.9887C217.642 44.589 217.778 45.9585 218.313 47.1754C218.327 47.2078 218.326 47.2739 218.326 47.296L218.298 47.9962C218.293 48.0466 218.266 48.1034 218.244 48.1245C217.159 49.1457 215.966 50.0335 214.685 50.7724C215.291 50.2364 215.727 49.537 216.01 48.6507C216.323 47.6684 216.483 46.646 216.639 45.6547L216.653 45.5665C216.708 45.2182 216.766 44.8706 216.824 44.5154L216.891 44.1138C216.9 44.0553 216.877 43.9968 216.83 43.9617C216.784 43.9258 216.718 43.9172 216.665 43.9395L216.607 43.9629C216.545 43.9877 216.491 44.0098 216.44 44.0352C214.018 45.2181 212.424 47.977 212.649 50.595C212.685 51.005 212.646 51.3902 212.532 51.7717C212.521 51.8064 212.487 51.8442 212.473 51.8505C211.323 52.3248 210.229 52.671 209.129 52.9086C209.072 52.9214 209.027 52.9609 209.009 53.0142C208.99 53.0679 209.001 53.1262 209.039 53.1701C209.159 53.3087 209.263 53.4577 209.349 53.6137C209.384 53.6775 209.467 53.7103 209.53 53.6943C210.427 53.4943 211.3 53.2352 212.126 52.9238C212.193 52.8976 212.244 52.8851 212.292 52.8928C212.475 52.9167 212.67 52.9536 212.885 53.0059C212.93 53.0166 212.967 53.0348 212.967 53.0348C213.438 53.953 214.248 54.5379 215.443 54.8225C215.703 54.8835 215.971 54.9286 216.24 54.9561C216.521 54.9852 216.835 55 217.172 55C217.639 55 217.972 54.9718 217.976 54.9714C219.012 54.8581 219.897 54.6301 220.68 54.2744C221.002 54.1287 221.368 53.9324 221.649 53.582C221.703 53.5149 221.694 53.418 221.629 53.3617C220.833 52.6749 220.023 52.176 219.151 51.8363C217.86 51.3345 216.684 51.1986 215.531 51.4155C215.359 51.4482 215.191 51.4894 215.027 51.5368C216.106 50.9063 217.138 50.1654 218.113 49.3214C218.132 49.3047 218.163 49.2901 218.187 49.286C218.346 49.26 218.558 49.2281 218.775 49.2129C218.795 49.2129 218.821 49.2223 218.823 49.2233C219.411 49.8664 220.168 50.1789 221.138 50.1789C221.187 50.1789 221.237 50.1779 221.286 50.1762C222.34 50.143 223.4 49.8597 224.437 49.3338C225.19 48.9495 225.975 48.502 226.612 47.8347C226.753 47.6864 226.879 47.5185 226.991 47.3705L227.002 47.356C227.051 47.2907 227.101 47.2249 227.152 47.16C227.18 47.1249 227.191 47.0797 227.184 47.0342C227.176 46.9903 227.15 46.9513 227.106 46.923C227.095 46.917 226.825 46.7756 226.579 46.6824C224.931 46.0595 223.266 45.9957 221.679 46.496C221.159 46.6593 220.67 46.9046 220.194 47.2435C221.074 46.2423 221.89 45.1446 222.63 43.9636C222.638 43.9511 222.659 43.9174 222.666 43.9112C222.731 43.8708 222.797 43.8326 222.863 43.7949C222.982 43.727 223.104 43.6567 223.22 43.5729C223.317 43.502 223.344 43.5001 223.442 43.562C223.581 43.6502 223.743 43.696 223.884 43.7321C224.708 43.9385 225.538 43.8356 226.457 43.4137C227.297 43.0289 227.942 42.4206 228.514 41.8208C229.347 40.9458 229.892 40.1564 230.227 39.3362C230.298 39.1641 230.348 38.9861 230.4 38.8C230.422 38.7219 230.444 38.6438 230.468 38.5671C230.493 38.4846 230.448 38.3974 230.365 38.3687L230.296 38.3635C229.956 38.3635 226.927 38.4122 225.155 40.0937C224.769 40.4596 224.424 40.8484 224.108 41.2741C224.809 39.8222 225.404 38.2921 225.883 36.7037L225.89 36.6805C225.895 36.661 225.904 36.6316 225.91 36.6237L226.373 36.0012C226.391 35.9763 226.393 35.9763 226.42 35.9763C226.432 35.9763 226.445 35.9771 226.46 35.978L226.559 35.9838C226.904 36.0047 227.107 36.0017 227.274 35.9761C227.934 35.8743 228.53 35.5493 229.095 34.9823C230.417 33.6564 231.327 32.0021 231.877 29.9255C231.936 29.703 231.953 29.4783 231.97 29.2401C231.978 29.132 231.987 29.0207 231.999 28.9057C232.004 28.8506 231.982 28.7979 231.94 28.7635Z" fill="white"/>
<path d="M22.8713 52.9092C21.7718 52.6717 20.6783 52.3256 19.5277 51.8512C19.514 51.8449 19.4798 51.8072 19.4691 51.7733C19.3544 51.391 19.316 51.0058 19.3514 50.5957C19.5767 47.9775 17.9824 45.2187 15.5611 44.036C15.5096 44.0104 15.4559 43.9883 15.3941 43.9635L15.3367 43.9403C15.2821 43.9175 15.2157 43.927 15.1717 43.9615C15.1241 43.9974 15.1005 44.0559 15.1102 44.1146L15.1765 44.516C15.2352 44.8713 15.2928 45.2189 15.3481 45.5668L15.362 45.6579C15.5175 46.6467 15.6782 47.6693 15.9913 48.6516C16.2739 49.5379 16.7098 50.2373 17.3162 50.7732C16.0352 50.0344 14.8414 49.1466 13.7572 48.1255C13.7345 48.1041 13.7075 48.0473 13.7035 48.0004L13.6745 47.2997C13.6743 47.2748 13.674 47.2087 13.6884 47.1759C14.2224 45.9593 14.3592 44.5898 14.1069 42.9895C13.8636 41.446 13.1897 40.0266 12.1039 38.7706C11.9768 38.6236 11.8647 38.5491 11.7705 38.5491C11.7476 38.5491 11.7269 38.5536 11.7106 38.5619C11.6606 38.5862 11.6268 38.6332 11.6202 38.6875L11.5911 38.932C11.5687 39.1134 11.5471 39.2915 11.5277 39.47C11.4943 39.7844 11.4576 40.0983 11.4207 40.4123L11.4154 40.4577C11.3237 41.2418 11.2285 42.0527 11.1782 42.8645C11.1198 43.8117 11.1371 44.9178 11.7095 45.941C11.7126 45.9462 11.7153 45.9517 11.7184 45.9568C10.9227 44.9838 10.1964 43.9366 9.54834 42.827C9.49108 42.7283 9.48615 42.6417 9.49686 42.5161C9.5429 41.9849 9.79538 41.5532 10.0613 41.166C10.5749 40.4163 10.8858 39.5302 11.0695 38.2926C11.3262 36.5618 11.067 34.8256 10.2993 33.1318C10.2783 33.0851 10.2536 33.04 10.2273 32.9917L10.1673 32.881C10.1386 32.827 10.0773 32.7915 10.0125 32.7943C9.94796 32.7976 9.89104 32.8377 9.86759 32.8958C9.68138 33.3551 9.50128 33.7976 9.32237 34.2367L9.20802 34.5174C8.82641 35.4547 8.39842 36.549 8.14968 37.6781C7.97434 38.4749 7.96363 39.2439 8.1174 39.976C7.52069 38.587 7.03017 37.1193 6.65451 35.5974C6.65027 35.5805 6.64891 35.5366 6.68612 35.4354C6.8618 34.9652 7.18173 34.5388 7.58712 34.2349C8.47454 33.5693 8.97797 32.6441 9.35329 31.8269C10.1218 30.1556 10.3302 28.3802 9.99043 26.3987C9.98687 26.3779 9.98041 26.3573 9.97276 26.3349L9.96665 26.317C9.95186 26.2726 9.91822 26.2367 9.87371 26.2179C9.83021 26.2001 9.7755 26.2035 9.74169 26.2198C9.70771 26.2319 9.65623 26.2503 9.62276 26.2983C9.43043 26.5496 9.2352 26.8031 9.03981 27.0565L9.00702 27.0992C8.5143 27.7391 8.00475 28.4005 7.51508 29.0593C6.94777 29.8205 6.54713 30.5604 6.29007 31.3214C6.16604 31.689 6.08499 32.0427 6.04676 32.3864C5.88348 31.1516 5.79088 29.8909 5.77067 28.6198C5.76591 28.3164 5.80533 28.0753 6.0172 27.8113C6.24147 27.5298 6.45097 27.3726 6.73981 27.2689C7.92659 26.8449 8.68794 25.9487 9.21855 25.2155C10.0757 24.0292 10.5785 22.6489 10.7555 20.9956C10.7744 20.8255 10.7851 20.6533 10.7961 20.4712L10.7988 20.4298C10.8041 20.3413 10.8097 20.2491 10.8169 20.1514C10.8213 20.0865 10.7858 20.0257 10.7265 19.9963C10.669 19.9681 10.5955 19.9764 10.5455 20.0178L10.4047 20.1357C10.3517 20.1799 10.3063 20.2178 10.2592 20.2547C10.0331 20.4323 9.80609 20.6081 9.57858 20.7844L9.5548 20.8027C9.05544 21.1895 8.53893 21.5895 8.0457 22.0026C7.08862 22.8008 6.47238 23.5954 6.10623 24.5035C6.04574 24.6532 5.99273 24.8012 5.9472 24.9478C6.09773 23.5048 6.34223 22.0838 6.67796 20.7052C6.71874 20.5365 6.74151 20.487 6.82527 20.4601C6.87794 20.4426 6.92704 20.4091 6.96289 20.3675C7.20637 20.0968 7.52698 20.054 7.83756 20.0478C8.87399 20.0241 9.69599 19.5184 10.3632 19.0269C11.9992 17.8219 13.1257 14.7645 13.1257 14.6609C13.1257 14.6069 13.0982 14.5565 13.0514 14.5261C13.0054 14.4964 12.9432 14.4922 12.8963 14.5126C12.5555 14.654 12.2147 14.7918 11.8618 14.9345C11.0853 15.2494 10.2825 15.5748 9.51147 15.9305C8.73551 16.2896 8.12232 16.7698 7.68397 17.3607C8.10177 16.1997 8.58617 15.0615 9.1285 13.9676C9.19086 13.8497 9.48378 13.7244 9.90378 13.7244C10.0404 13.7244 10.1727 13.7387 10.2871 13.7656C11.2739 13.9969 12.2524 13.8566 13.3354 13.3274C14.4433 12.7857 15.3625 11.9001 16.1454 10.6191C16.1604 10.5944 16.1898 10.5188 16.2056 10.4764C16.2254 10.4246 16.2175 10.3674 16.1845 10.324C16.1539 10.2828 16.105 10.2582 16.0426 10.2582H16.0413L15.6501 10.2823C15.4104 10.2971 15.1776 10.3116 14.9449 10.3232L14.6963 10.3355C13.9542 10.3721 13.1865 10.4096 12.4355 10.5846C11.579 10.786 10.9502 11.0952 10.468 11.5538C11.0387 10.6248 11.6499 9.7408 12.2937 8.91282C12.311 8.89089 12.3941 8.85732 12.4622 8.84619C12.4962 8.83838 12.6199 8.81296 12.7844 8.81296C13.0025 8.81296 13.1935 8.85633 13.3554 8.94339C14.3842 9.4354 15.5395 9.47195 16.7939 9.05057C17.8229 8.70678 18.6943 8.06822 19.4582 7.09899C19.483 7.06776 19.5055 7.03369 19.5259 6.9978C19.5491 6.95643 19.5507 6.9109 19.5303 6.86936C19.4711 6.74806 19.2153 6.69107 19.1075 6.67212C18.8432 6.62693 18.5436 6.57542 18.2466 6.53604C18.1105 6.51743 17.9743 6.49799 17.8377 6.47821L17.8202 6.47556C17.3574 6.40876 16.8789 6.33964 16.3969 6.31587C15.5161 6.27184 14.734 6.44764 14.094 6.83679C14.5244 6.38882 14.9641 5.96378 15.4106 5.56449C15.5518 5.43854 15.7115 5.31159 15.9291 5.15224C15.946 5.13961 15.9888 5.12483 16.0413 5.12183C17.5838 5.06285 18.8675 4.39687 19.9651 3.08618C20.563 2.37268 21.0214 1.47275 21.3668 0.334874L21.3787 0.295826C21.4155 0.176189 21.4359 0.110389 21.3511 0.0332894C21.2857 -0.0261966 21.1705 -0.00858296 20.8712 0.107398C20.5993 0.209588 20.3258 0.308787 20.0449 0.410644C19.4807 0.615189 18.897 0.826713 18.3338 1.06565C17.3925 1.46577 16.6409 2.07226 16.1001 2.86801C15.6882 3.47351 15.5254 4.08183 15.6021 4.72454C15.6016 4.73169 15.5951 4.7488 15.5941 4.75079C14.6115 5.58044 13.6723 6.51444 12.7079 7.62606C13.351 6.66448 13.7701 5.55734 13.9805 4.27391C14.1925 2.98001 14.206 1.82834 14.0218 0.753269C14.0101 0.685974 13.9942 0.618678 13.974 0.534434L13.944 0.404661C13.9304 0.348997 13.8875 0.303967 13.8313 0.286687C13.7751 0.270403 13.712 0.284859 13.6701 0.323907C13.6028 0.385885 13.5369 0.444374 13.4725 0.501202L13.4271 0.541247C13.2623 0.686473 13.1067 0.823556 12.9658 0.978585C11.5972 2.4885 10.799 4.08332 10.5256 5.85428C10.4011 6.65468 10.4527 7.33611 10.6836 7.93695C10.7601 8.13601 10.8794 8.3138 10.9981 8.49027C11.0525 8.57086 11.1069 8.65178 11.1567 8.73486C11.1934 8.79451 11.1964 8.80997 11.1963 8.80714C11.1737 9.04392 11.1412 9.30779 11.0974 9.62449C11.0955 9.62848 11.0894 9.63778 11.0698 9.66304L11.054 9.68448C10.3056 10.7019 9.61511 11.7745 8.99377 12.8846C9.23809 12.0554 9.43263 11.006 9.41887 9.7865C9.40222 8.32378 9.05782 7.01924 8.36563 5.79778C8.33827 5.75026 8.28866 5.71935 8.21917 5.7147C8.16871 5.7147 8.12012 5.73913 8.08834 5.78083C8.06762 5.80908 8.04655 5.83567 8.0265 5.86092C7.98181 5.91742 7.94002 5.97092 7.90264 6.02808C7.35146 6.87335 7.05583 7.80535 6.85959 8.523C6.50092 9.83917 6.33611 10.9382 6.34087 11.9818C6.34359 12.869 6.50891 13.5509 6.86129 14.128C6.97088 14.3076 7.10884 14.4648 7.24748 14.623C7.32105 14.7069 7.39666 14.7931 7.46513 14.8815C7.51304 14.943 7.53615 15.0056 7.53751 15.0405C7.54652 15.2509 7.54176 15.4648 7.53717 15.6715L7.53394 15.8144C7.53343 15.8389 7.52766 15.8672 7.51899 15.8888C7.07656 16.9371 6.68764 18.0266 6.35599 19.1456C6.40475 18.7646 6.43228 18.3957 6.43924 18.0358C6.47934 15.993 5.83863 14.1687 4.53444 12.6129L4.26259 12.2891C4.23115 12.251 4.1846 12.2294 4.13499 12.2294L4.1078 12.2317C4.0497 12.2412 4.00076 12.2806 3.98054 12.3343C3.95574 12.3989 3.93144 12.4599 3.90783 12.5189C3.86229 12.6329 3.8193 12.7409 3.78294 12.8507C3.50311 13.7079 3.36583 14.6444 3.33796 15.8866L3.33745 15.9109C3.31656 16.8147 3.28784 18.0527 3.66741 19.2375C4.04103 20.4038 4.69992 20.9931 4.82769 21.099L4.84128 21.1109C5.18908 21.4145 5.41556 21.6922 5.46246 21.8725C5.48132 21.9452 5.50052 22.0182 5.52294 22.0903C5.62217 22.4112 5.56015 22.7169 5.49321 23.0471C5.45991 23.2137 5.42525 23.3859 5.41319 23.5625C5.36527 24.2693 5.30649 24.9882 5.24957 25.6832L5.24447 25.7475C5.22986 25.9248 5.21525 26.1021 5.2008 26.2794C5.05571 24.6889 4.51711 23.2431 3.59044 21.9645C3.02296 21.1822 2.3464 20.5129 1.5791 19.9747C1.54597 19.9515 1.51114 19.9307 1.46459 19.9036C1.44199 19.8908 1.41583 19.8755 1.38405 19.8561C1.33614 19.828 1.27463 19.8255 1.22519 19.8491C1.17456 19.8732 1.13973 19.9222 1.13395 19.9777C1.12359 20.0782 1.11152 20.1756 1.09878 20.2766C1.07313 20.4835 1.04883 20.6789 1.04781 20.8796C1.03643 22.9603 1.48651 24.9101 2.38598 26.674C2.63659 27.1662 2.96774 27.5919 3.37058 27.9399C3.77003 28.283 4.20108 28.4854 4.68752 28.5581C4.69822 28.56 4.72371 28.5751 4.72762 28.5781C4.75395 28.6298 4.78131 28.6816 4.80866 28.7336C4.90585 28.9172 5.00626 29.1071 5.05621 29.2976C5.09784 29.4586 5.09784 29.6345 5.09784 29.821C5.09784 29.8893 5.09784 29.9581 5.10005 30.0255C5.14677 31.6373 5.20811 32.1986 5.4718 33.6387C5.3109 33.2105 5.10889 32.7812 4.84808 32.3681C3.79195 30.6963 2.45021 29.5616 0.746228 28.8994C0.637829 28.8567 0.52909 28.826 0.40302 28.7901L0.377874 28.7828C0.326732 28.7682 0.272533 28.7526 0.214595 28.7353C0.162264 28.7185 0.102627 28.73 0.0599811 28.7645C0.0175048 28.7989 -0.00475276 28.8516 0.000854111 28.9064C0.0134271 29.0207 0.0220923 29.1319 0.0300778 29.2404C0.0475781 29.4784 0.0640589 29.703 0.123016 29.9253C0.672829 32.0022 1.58284 33.6563 2.90487 34.9825C3.47015 35.5494 4.06584 35.8744 4.72592 35.9763C4.89243 36.0017 5.09597 36.0049 5.44054 35.9839L5.53977 35.9781C5.55489 35.9773 5.56814 35.9765 5.5802 35.9765C5.60739 35.9765 5.6096 35.9765 5.62846 36.0037L6.09009 36.6236C6.09604 36.6318 6.1047 36.6612 6.11065 36.6815L6.11744 36.7037C6.59658 38.2922 7.19107 39.8223 7.8921 41.2744C7.57659 40.8485 7.23083 40.4597 6.84549 40.0939C5.07338 38.4124 2.04362 38.3637 1.70398 38.3637L1.66168 38.364L1.635 38.3689C1.55175 38.3978 1.50672 38.4848 1.53238 38.5667C1.556 38.644 1.57808 38.7221 1.6034 38.8138C1.65182 38.9861 1.70212 39.1641 1.77263 39.3362C2.10836 40.1568 2.65257 40.946 3.48561 41.821C4.05802 42.4209 4.70332 43.0292 5.54248 43.4139C6.4615 43.8359 7.29132 43.9389 8.11655 43.7322C8.25689 43.6962 8.4183 43.6505 8.55711 43.5624C8.656 43.5004 8.68301 43.5024 8.7802 43.5732C8.89539 43.657 9.0179 43.7272 9.13683 43.7954C9.20258 43.8331 9.26884 43.8711 9.33069 43.9094C9.34054 43.9175 9.36161 43.9512 9.36943 43.9637C10.1099 45.1448 10.9256 46.2424 11.8064 47.2437C11.33 46.9048 10.8408 46.6595 10.3212 46.4962C8.73347 45.9958 7.06925 46.0595 5.421 46.6828C5.17498 46.776 4.90534 46.9172 4.88733 46.9272C4.84961 46.9514 4.82361 46.9907 4.81546 47.0357C4.80832 47.0799 4.82005 47.1251 4.84757 47.1597C4.89905 47.2251 4.94883 47.2909 4.99811 47.3562L5.00898 47.3705C5.12027 47.5187 5.24634 47.6864 5.3877 47.8349C6.02433 48.5024 6.80947 48.9499 7.56317 49.334C8.59959 49.86 9.65946 50.1433 10.7135 50.1765C10.7632 50.1782 10.8128 50.1791 10.8622 50.1791C11.8319 50.1791 12.5888 49.8666 13.1722 49.2274C13.1794 49.2224 13.2047 49.2129 13.2186 49.2127C13.4415 49.2284 13.6534 49.2601 13.8118 49.2859C13.8367 49.2902 13.8675 49.3048 13.8867 49.3217C14.8614 50.1657 15.8938 50.9064 16.9722 51.5369C16.8087 51.4895 16.6404 51.4483 16.4681 51.4152C15.3156 51.1985 14.1395 51.3345 12.8481 51.8363C11.9768 52.1759 11.1665 52.6749 10.3709 53.3616C10.3053 53.418 10.2961 53.5148 10.3501 53.582C10.6317 53.9324 10.998 54.1287 11.3193 54.2742C12.1029 54.6303 12.9874 54.8583 14.0243 54.9716C14.0274 54.9718 14.3606 55 14.8278 55C15.1651 55 15.4789 54.9852 15.7601 54.9561C16.0289 54.9286 16.297 54.8835 16.5571 54.8224C17.7519 54.5379 18.5615 53.953 19.0253 53.0449C19.0336 53.0371 19.0693 53.0169 19.1145 53.0061C19.3301 52.9537 19.5242 52.9168 19.7087 52.8927C19.7522 52.8859 19.8064 52.8974 19.8747 52.9243C20.6997 53.2352 21.5729 53.4942 22.4681 53.694C22.4807 53.697 22.4938 53.6985 22.5068 53.6985C22.567 53.6985 22.6224 53.6661 22.6516 53.6132C22.7371 53.4577 22.8412 53.3085 22.961 53.1697C22.9985 53.126 23.0098 53.0679 22.9912 53.014C22.9736 52.9619 22.9287 52.9223 22.8713 52.9092Z" fill="white"/>
<path d="M72.8932 36.4176C72.8942 34.4976 72.3432 32.6189 71.3075 31.0109L75.1564 27.1116L72.2658 24.1827L68.4193 28.082C66.8316 27.0332 64.977 26.4747 63.0815 26.4747C61.186 26.4747 59.3314 27.0332 57.7437 28.082L53.8913 24.1827L51 27.1116L54.8493 31.0106C53.8138 32.6189 53.2626 34.4976 53.2626 36.4178C53.2626 38.3379 53.8138 40.2166 54.8493 41.825L51 45.7246L53.8913 48.6535L57.7405 44.7542C59.3283 45.8031 61.1828 46.3615 63.0784 46.3615C64.9739 46.3615 66.8284 45.8031 68.4162 44.7542L72.2654 48.6535L75.1564 45.7246L71.3075 41.8285C72.3439 40.2193 72.895 38.339 72.8932 36.4176ZM57.3526 36.4176C57.3511 35.5523 57.5407 34.6976 57.9076 33.9161C58.2745 33.1347 58.8094 32.4463 59.473 31.9014C60.1366 31.3565 60.9121 30.9689 61.7428 30.767C62.5734 30.5651 63.4381 30.5541 64.2735 30.7347C65.109 30.9153 65.8939 31.283 66.5708 31.8107C67.2478 32.3385 67.7996 33.013 68.1858 33.7849C68.572 34.5567 68.7828 35.4063 68.8029 36.2714C68.8229 37.1365 68.6516 37.9952 68.3015 38.7845L64.5245 34.9532L61.6322 37.8827L65.4105 41.7091C64.5394 42.106 63.5839 42.2752 62.6315 42.2015C61.6791 42.1277 60.7601 41.8133 59.9586 41.287C59.1571 40.7606 58.4986 40.0392 58.0434 39.1885C57.5881 38.3379 57.3506 37.3852 57.3526 36.4176Z" fill="#4CBBFD"/>
<path fill-rule="evenodd" clip-rule="evenodd" d="M93.6853 36.5352C93.6853 38.9271 92.4882 41.0866 90.3564 42.0831L91.4878 43.5782L89.1593 44.7746L87.6014 42.6817H87.5524C83.6986 42.6817 81.4194 39.8412 81.4194 36.5355C81.4194 33.2296 83.6986 30.3891 87.5524 30.3891C91.4058 30.3891 93.6853 33.2296 93.6853 36.5355V36.5352ZM87.5524 40.2725C89.7332 40.2725 90.9136 38.5616 90.9136 36.5352C90.9136 34.5084 89.7332 32.7975 87.5524 32.7975C85.3549 32.7975 84.1741 34.5084 84.1908 36.5352C84.1741 38.5616 85.3552 40.2725 87.552 40.2725H87.5524ZM97.9816 42.5648C96.0792 42.5648 95.0628 41.369 95.0628 39.2926V34.3422H97.6044V38.7278C97.6044 39.8239 97.9652 40.4222 98.9163 40.4222C99.982 40.4222 100.441 39.7243 100.441 38.6447V34.3422H102.934V42.3493H100.441V41.2028C99.9987 42.05 99.1787 42.5651 97.9816 42.5651V42.5648ZM108.165 42.5648C105.803 42.5648 104.442 40.7542 104.442 38.3458C104.442 35.9535 105.902 34.1264 108.198 34.1264C109.345 34.1264 110.247 34.6746 110.674 35.4884V34.3422H113.166V42.3493H110.674V41.2193C110.247 42.0169 109.263 42.5651 108.165 42.5651V42.5648ZM108.886 40.4556C110.133 40.4556 110.772 39.5084 110.772 38.3458C110.772 37.1996 110.133 36.2528 108.886 36.2528C107.722 36.2528 107.001 37.1331 107.001 38.3458C107.001 39.5584 107.722 40.4553 108.886 40.4553V40.4556ZM115.249 34.3422H117.758V35.5053C118.217 34.6081 119.119 34.1264 120.316 34.1264C122.235 34.1264 123.202 35.2229 123.202 37.3989V42.3486H120.677V38.2289C120.677 36.8838 120.3 36.269 119.283 36.269C118.282 36.269 117.758 36.9334 117.758 38.1627V42.3486H115.249V34.3422ZM129.351 40.3722C129.663 40.3722 129.991 40.3556 130.22 40.3225V42.3489C129.86 42.4155 129.269 42.482 128.548 42.482C127.367 42.482 125.744 42.2162 125.744 39.5419V36.3521H124.497V34.3419H125.744V31.9665H128.253V34.3419H130.04V36.3521H128.253V39.0098C128.253 40.1894 128.728 40.3718 129.351 40.3718V40.3722ZM134.828 42.5982C132.516 42.5982 131.09 41.4521 131.09 39.9405H133.582C133.582 40.4887 134.107 40.8873 134.878 40.8873C135.419 40.8873 135.796 40.6049 135.796 40.1398C135.796 39.8239 135.648 39.5584 135.222 39.4588L133.287 38.9602C131.975 38.6282 131.303 37.7975 131.303 36.6514C131.303 35.1563 132.598 34.1098 134.681 34.1098C136.993 34.1098 138.207 35.0898 138.207 36.6014H135.73C135.73 36.0366 135.32 35.7211 134.648 35.7211C134.107 35.7211 133.746 35.987 133.746 36.3855C133.746 36.751 133.992 36.9834 134.418 37.1L136.288 37.6148C137.501 37.9472 138.288 38.6943 138.288 39.8408C138.288 41.4852 136.993 42.5979 134.828 42.5979V42.5982ZM143.995 40.3722C144.306 40.3722 144.635 40.3556 144.864 40.3225V42.3489C144.503 42.4155 143.913 42.482 143.191 42.482C142.011 42.482 140.387 42.2162 140.387 39.5419V36.3521H139.141V34.3419H140.387V31.9665H142.896V34.3419H144.684V36.3521H142.896V39.0098C142.896 40.1894 143.372 40.3718 143.995 40.3718L143.995 40.3722ZM149.456 42.5651C147.094 42.5651 145.733 40.7542 145.733 38.3458C145.733 35.9535 147.193 34.1264 149.488 34.1264C150.636 34.1264 151.538 34.6746 151.965 35.4884V34.3422H154.457V42.3493H151.965V41.2193C151.538 42.0169 150.554 42.5651 149.456 42.5651ZM150.177 40.4553C151.423 40.4553 152.063 39.5084 152.063 38.3458C152.063 37.1996 151.423 36.2528 150.177 36.2528C149.012 36.2528 148.291 37.1331 148.291 38.3458C148.291 39.5584 149.013 40.4553 150.177 40.4553ZM156.54 34.3426H159.049V35.5053C159.393 34.7077 160.213 34.1264 161.311 34.1264C162.722 34.1264 163.443 34.7577 163.788 35.6049C164.214 34.7412 165.148 34.1264 166.313 34.1264C168.576 34.1264 169.117 35.7046 169.117 37.3824V42.3486H166.592V37.8472C166.592 36.7345 166.182 36.2694 165.411 36.2694C164.624 36.2694 164.083 36.7176 164.083 38.2296V42.3493H161.557V37.8303C161.557 36.7176 161.164 36.269 160.393 36.269C159.59 36.269 159.049 36.7172 159.049 38.2292V42.3489H156.54V34.3419V34.3426ZM171.101 34.3426H173.61V35.4884C174.02 34.7243 175.004 34.1264 176.185 34.1264C178.349 34.1264 179.825 35.8208 179.825 38.3458C179.825 40.8539 178.3 42.5651 176.119 42.5651C174.954 42.5651 174.004 41.9669 173.61 41.2193V45.6715H171.101V34.3422V34.3426ZM175.397 40.4553C176.496 40.4553 177.267 39.5915 177.267 38.3458C177.267 37.1165 176.496 36.2528 175.398 36.2528C174.266 36.2528 173.495 37.1 173.495 38.3458C173.495 39.6081 174.283 40.4553 175.398 40.4553H175.397ZM179.003 34.4912C178.862 34.4912 178.739 34.4595 178.634 34.3961C178.531 34.3348 178.447 34.2452 178.392 34.1377C178.335 34.0251 178.306 33.9001 178.308 33.7736C178.308 33.6415 178.336 33.5211 178.392 33.412C178.449 33.3032 178.529 33.2172 178.634 33.1539C178.739 33.0905 178.862 33.0588 179.003 33.0588C179.142 33.0588 179.265 33.0905 179.37 33.1539C179.476 33.2172 179.557 33.3032 179.614 33.412C179.67 33.5211 179.698 33.6415 179.698 33.7736C179.698 33.9074 179.67 34.0289 179.614 34.1377C179.557 34.2468 179.476 34.3327 179.37 34.3961C179.265 34.4595 179.142 34.4912 179.003 34.4912ZM179.003 34.3736C179.116 34.3736 179.215 34.3465 179.299 34.2929C179.383 34.2394 179.448 34.1672 179.493 34.076C179.539 33.9852 179.561 33.8841 179.561 33.7736C179.561 33.6644 179.538 33.5648 179.493 33.4736C179.45 33.3842 179.382 33.309 179.299 33.2567C179.21 33.202 179.107 33.1741 179.003 33.1764C178.89 33.1764 178.791 33.2032 178.707 33.2567C178.622 33.3105 178.557 33.3827 178.511 33.4736C178.465 33.5666 178.441 33.6694 178.443 33.7736C178.443 33.8841 178.465 33.9848 178.511 34.0764C178.557 34.1672 178.623 34.2394 178.707 34.2929C178.792 34.3465 178.89 34.3736 179.003 34.3736ZM178.752 33.3852H179.042C179.117 33.3852 179.177 33.4109 179.225 33.4616C179.248 33.4859 179.266 33.5147 179.279 33.5461C179.291 33.5776 179.297 33.6112 179.296 33.6451C179.297 33.6979 179.282 33.7497 179.253 33.7936C179.223 33.8376 179.18 33.8702 179.13 33.8859L179.291 34.1429H179.161L179.014 33.8996H178.868V34.1433H178.752V33.3852ZM179.034 33.7979C179.054 33.7988 179.074 33.7952 179.092 33.7876C179.111 33.7799 179.127 33.7683 179.141 33.7535C179.167 33.7239 179.181 33.685 179.18 33.6451C179.182 33.6042 179.167 33.5643 179.141 33.5338C179.127 33.5191 179.111 33.5075 179.092 33.4999C179.074 33.4923 179.054 33.4888 179.034 33.4898H178.871V33.7979H179.034Z" fill="white"/>
<path fill-rule="evenodd" clip-rule="evenodd" d="M159.538 36.6287C159.418 36.6287 159.314 36.6022 159.225 36.5491C159.136 36.4961 159.068 36.424 159.02 36.3328C158.972 36.2417 158.948 36.1401 158.948 36.028C158.948 35.9174 158.972 35.8166 159.02 35.7254C159.068 35.6343 159.136 35.5622 159.225 35.5091C159.314 35.4561 159.418 35.4296 159.538 35.4296C159.656 35.4296 159.76 35.4561 159.849 35.5091C159.939 35.5622 160.008 35.6343 160.055 35.7254C160.103 35.8166 160.127 35.9174 160.127 36.028C160.127 36.1401 160.103 36.2417 160.055 36.3328C160.008 36.424 159.939 36.4961 159.849 36.5491C159.76 36.6022 159.656 36.6287 159.538 36.6287ZM159.538 36.5301C159.633 36.5301 159.717 36.5076 159.789 36.4628C159.86 36.418 159.915 36.3575 159.953 36.2813C159.992 36.2051 160.011 36.1206 160.011 36.028C160.011 35.9369 159.992 35.8532 159.953 35.777C159.915 35.7008 159.86 35.6403 159.789 35.5954C159.717 35.5506 159.633 35.5282 159.538 35.5282C159.442 35.5282 159.358 35.5506 159.287 35.5954C159.215 35.6403 159.16 35.7008 159.121 35.777C159.082 35.8532 159.063 35.9369 159.063 36.028C159.063 36.1206 159.082 36.2051 159.121 36.2813C159.16 36.3575 159.215 36.418 159.287 36.4628C159.358 36.5076 159.442 36.5301 159.538 36.5301ZM159.325 35.703H159.571C159.634 35.703 159.686 35.7243 159.726 35.7669C159.766 35.8095 159.786 35.8606 159.786 35.9204C159.786 35.9667 159.774 36.0082 159.75 36.0448C159.725 36.0814 159.69 36.1072 159.645 36.1221L159.782 36.3373H159.672L159.547 36.1333H159.423V36.3373H159.325V35.703ZM159.565 36.0482C159.602 36.0482 159.632 36.0358 159.654 36.0112C159.677 35.9865 159.688 35.9563 159.688 35.9204C159.688 35.8831 159.677 35.8521 159.654 35.8274C159.632 35.8027 159.602 35.7904 159.565 35.7904H159.426V36.0482H159.565Z" fill="black"/>
<path d="M82.276 16L85.348 7.6H87.076L90.148 16H88.516L87.844 14.056H84.568L83.884 16H82.276ZM84.988 12.856H87.424L86.2 9.364L84.988 12.856ZM94.1068 16.144C93.4908 16.144 92.9348 16.024 92.4388 15.784C91.9428 15.536 91.5468 15.164 91.2508 14.668C90.9628 14.172 90.8188 13.544 90.8188 12.784V7.6H92.3548V12.796C92.3548 13.452 92.5108 13.94 92.8228 14.26C93.1428 14.58 93.5828 14.74 94.1428 14.74C94.6948 14.74 95.1308 14.58 95.4508 14.26C95.7708 13.94 95.9308 13.452 95.9308 12.796V7.6H97.4668V12.784C97.4668 13.544 97.3148 14.172 97.0108 14.668C96.7068 15.164 96.2988 15.536 95.7868 15.784C95.2828 16.024 94.7228 16.144 94.1068 16.144ZM99.0348 16V7.6H101.903C102.887 7.6 103.695 7.776 104.327 8.128C104.967 8.472 105.439 8.96 105.743 9.592C106.055 10.216 106.211 10.952 106.211 11.8C106.211 12.648 106.055 13.388 105.743 14.02C105.439 14.644 104.967 15.132 104.327 15.484C103.695 15.828 102.887 16 101.903 16H99.0348ZM100.571 14.68H101.831C102.535 14.68 103.091 14.568 103.499 14.344C103.907 14.112 104.199 13.784 104.375 13.36C104.551 12.928 104.639 12.408 104.639 11.8C104.639 11.2 104.551 10.684 104.375 10.252C104.199 9.82 103.907 9.488 103.499 9.256C103.091 9.024 102.535 8.908 101.831 8.908H100.571V14.68ZM107.566 16V7.6H109.102V16H107.566ZM112.686 16V8.836H110.238V7.6H116.682V8.836H114.222V16H112.686ZM117.82 16V7.6H123.304V8.836H119.356V11.14H122.944V12.34H119.356V14.764H123.304V16H117.82ZM124.757 16V7.6H127.625C128.609 7.6 129.417 7.776 130.049 8.128C130.689 8.472 131.161 8.96 131.465 9.592C131.777 10.216 131.933 10.952 131.933 11.8C131.933 12.648 131.777 13.388 131.465 14.02C131.161 14.644 130.689 15.132 130.049 15.484C129.417 15.828 128.609 16 127.625 16H124.757ZM126.293 14.68H127.553C128.257 14.68 128.813 14.568 129.221 14.344C129.629 14.112 129.921 13.784 130.097 13.36C130.273 12.928 130.361 12.408 130.361 11.8C130.361 11.2 130.273 10.684 130.097 10.252C129.921 9.82 129.629 9.488 129.221 9.256C128.813 9.024 128.257 8.908 127.553 8.908H126.293V14.68ZM136.148 16V7.6H139.52C140.392 7.6 141.056 7.804 141.512 8.212C141.976 8.612 142.208 9.128 142.208 9.76C142.208 10.288 142.064 10.712 141.776 11.032C141.496 11.344 141.152 11.556 140.744 11.668C141.224 11.764 141.62 12.004 141.932 12.388C142.244 12.764 142.4 13.204 142.4 13.708C142.4 14.372 142.16 14.92 141.68 15.352C141.2 15.784 140.52 16 139.64 16H136.148ZM137.684 11.128H139.292C139.724 11.128 140.056 11.028 140.288 10.828C140.52 10.628 140.636 10.344 140.636 9.976C140.636 9.624 140.52 9.348 140.288 9.148C140.064 8.94 139.724 8.836 139.268 8.836H137.684V11.128ZM137.684 14.752H139.4C139.856 14.752 140.208 14.648 140.456 14.44C140.712 14.224 140.84 13.924 140.84 13.54C140.84 13.148 140.708 12.84 140.444 12.616C140.18 12.392 139.824 12.28 139.376 12.28H137.684V14.752ZM145.527 16V13.012L142.707 7.6H144.447L146.307 11.476L148.155 7.6H149.871L147.063 13.012V16H145.527Z" fill="white"/>
</svg>
