<svg width="26" height="26" viewBox="0 0 26 26" fill="none" xmlns="http://www.w3.org/2000/svg">
<path d="M7.82603 15.7342C7.47935 15.9422 7.08503 16.0462 6.64303 16.0462C6.20972 16.0462 5.81535 15.9422 5.46003 15.7342C5.11335 15.5175 4.84036 15.2229 4.64103 14.8502C4.4417 14.4775 4.34203 14.0615 4.34203 13.6022C4.34203 13.1342 4.4417 12.7182 4.64103 12.3542C4.84036 11.9902 5.11335 11.7042 5.46003 11.4962C5.81535 11.2795 6.20972 11.1712 6.64303 11.1712C7.08503 11.1712 7.47935 11.2795 7.82603 11.4962C8.17272 11.7042 8.44572 11.9902 8.64503 12.3542C8.85303 12.7182 8.95703 13.1342 8.95703 13.6022C8.95703 14.0615 8.85303 14.4775 8.64503 14.8502C8.44572 15.2229 8.17272 15.5175 7.82603 15.7342Z" fill="white" fill-opacity="0.6"/>
<path d="M20.8895 15.7342C20.5428 15.9422 20.1485 16.0462 19.7065 16.0462C19.2732 16.0462 18.8788 15.9422 18.5235 15.7342C18.1768 15.5175 17.9038 15.2272 17.7045 14.8632C17.5052 14.4905 17.4055 14.0745 17.4055 13.6152C17.4055 13.1472 17.5052 12.7312 17.7045 12.3672C17.9038 11.9945 18.1768 11.7042 18.5235 11.4962C18.8788 11.2795 19.2732 11.1712 19.7065 11.1712C20.1485 11.1712 20.5428 11.2795 20.8895 11.4962C21.2362 11.7042 21.5092 11.9945 21.7085 12.3672C21.9165 12.7312 22.0205 13.1472 22.0205 13.6152C22.0205 14.0745 21.9165 14.4905 21.7085 14.8632C21.5092 15.2272 21.2362 15.5175 20.8895 15.7342Z" fill="white" fill-opacity="0.6"/>
<path fill-rule="evenodd" clip-rule="evenodd" d="M26 13C26 20.1797 20.1797 26 13 26C5.8203 26 0 20.1797 0 13C0 5.8203 5.8203 0 13 0C20.1797 0 26 5.8203 26 13ZM4.82303 16.7482C5.36035 17.0602 5.96703 17.2162 6.64303 17.2162C7.32772 17.2162 7.93872 17.0602 8.47603 16.7482C9.01335 16.4275 9.43803 15.9942 9.75003 15.4482C10.0707 14.9022 10.231 14.2869 10.231 13.6022C10.231 12.9175 10.0837 12.3065 9.78903 11.7692C9.50303 11.2232 9.10872 10.7942 8.60603 10.4822C8.10335 10.1615 7.53572 10.0012 6.90303 10.0012C6.39172 10.0012 5.91935 10.1095 5.48603 10.3262C5.06136 10.5342 4.69737 10.8202 4.39403 11.1842V7.6742C4.39403 7.47488 4.33337 7.31451 4.21203 7.1932C4.0907 7.07188 3.93037 7.0112 3.73103 7.0112C3.54037 7.0112 3.38003 7.07188 3.25003 7.1932C3.1287 7.31451 3.06803 7.47488 3.06803 7.6742V13.6022C3.0767 14.2869 3.23703 14.9022 3.54903 15.4482C3.86103 15.9942 4.2857 16.4275 4.82303 16.7482ZM12.5207 16.9822C12.6507 17.1035 12.811 17.1642 13.0017 17.1642C13.201 17.1642 13.3613 17.1035 13.4827 16.9822C13.604 16.8522 13.6647 16.6919 13.6647 16.5012V10.7162C13.6647 10.5169 13.604 10.3565 13.4827 10.2352C13.3613 10.1139 13.201 10.0532 13.0017 10.0532C12.811 10.0532 12.6507 10.1139 12.5207 10.2352C12.3993 10.3565 12.3387 10.5169 12.3387 10.7162V16.5012C12.3387 16.6919 12.3993 16.8522 12.5207 16.9822ZM12.3907 8.6492C12.564 8.81388 12.7677 8.8962 13.0017 8.8962C13.2357 8.8962 13.435 8.81388 13.5997 8.6492C13.773 8.47588 13.8597 8.2722 13.8597 8.0382C13.8597 7.8042 13.773 7.60488 13.5997 7.4402C13.435 7.26688 13.2357 7.1802 13.0017 7.1802C12.7677 7.1802 12.564 7.26688 12.3907 7.4402C12.226 7.60488 12.1437 7.8042 12.1437 8.0382C12.1437 8.2722 12.226 8.47588 12.3907 8.6492ZM16.3135 20.0112C16.4435 20.1412 16.6038 20.2062 16.7945 20.2062C16.9938 20.2062 17.1542 20.1412 17.2755 20.0112C17.3968 19.8899 17.4575 19.7339 17.4575 19.5432V16.0332C17.7608 16.3972 18.1248 16.6875 18.5495 16.9042C18.9828 17.1122 19.4552 17.2162 19.9665 17.2162C20.5992 17.2162 21.1668 17.0602 21.6695 16.7482C22.1722 16.4275 22.5665 15.9985 22.8525 15.4612C23.1472 14.9152 23.2945 14.2999 23.2945 13.6152C23.2945 12.9305 23.1342 12.3152 22.8135 11.7692C22.5015 11.2232 22.0768 10.7942 21.5395 10.4822C21.0022 10.1615 20.3912 10.0012 19.7065 10.0012C19.0305 10.0012 18.4238 10.1615 17.8865 10.4822C17.3492 10.7942 16.9245 11.2232 16.6125 11.7692C16.3005 12.3152 16.1402 12.9305 16.1315 13.6152V19.5432C16.1315 19.7339 16.1922 19.8899 16.3135 20.0112Z" fill="white" fill-opacity="0.6"/>
</svg>
